<?xml version="1.0" standalone="no"?>
<!DOCTYPE svg PUBLIC "-//W3C//DTD SVG 20010904//EN"
 "http://www.w3.org/TR/2001/REC-SVG-20010904/DTD/svg10.dtd">
<svg version="1.0" xmlns="http://www.w3.org/2000/svg"
 width="975.000000pt" height="901.000000pt" viewBox="0 0 975.000000 901.000000" 
 preserveAspectRatio="xMidYMid meet">

<g transform="translate(0.000000,901.000000) scale(0.100000,-0.100000)" stroke="none">
<path d="M2840 8000 c0 -5 -9 -19 -20 -30 -11 -11 -20 -29 -20 -40 0 -11 -4
-20 -10 -20 -7 0 -10 -145 -10 -415 0 -270 -3 -415 -10 -415 -5 0 -10 -13 -10
-29 0 -17 -4 -32 -9 -35 -4 -3 -16 -34 -26 -68 -9 -35 -21 -67 -25 -73 -4 -5
-13 -28 -20 -50 -7 -22 -16 -44 -21 -50 -5 -5 -9 -22 -9 -37 0 -15 -4 -28 -10
-28 -5 0 -10 -7 -10 -15 0 -8 -4 -15 -8 -15 -5 0 -14 -22 -21 -50 -7 -27 -17
-50 -22 -50 -5 0 -9 -7 -9 -16 0 -8 -11 -35 -24 -59 -14 -24 -30 -62 -37 -84
-7 -23 -16 -41 -21 -41 -4 0 -8 -7 -8 -15 0 -8 -4 -15 -10 -15 -5 0 -10 -9
-10 -20 0 -11 -4 -20 -10 -20 -5 0 -10 -7 -10 -15 0 -8 -4 -15 -10 -15 -5 0
-10 -7 -10 -16 0 -18 -31 -77 -42 -82 -5 -2 -8 -10 -8 -18 0 -8 -4 -14 -10
-14 -5 0 -10 -9 -10 -20 0 -11 -4 -20 -10 -20 -5 0 -10 -7 -10 -15 0 -8 -4
-15 -10 -15 -5 0 -10 -7 -10 -15 0 -8 -4 -15 -10 -15 -5 0 -10 -7 -10 -15 0
-9 -7 -18 -15 -21 -8 -4 -15 -12 -15 -20 0 -8 -4 -14 -10 -14 -5 0 -10 -7 -10
-15 0 -8 -4 -15 -10 -15 -5 0 -10 -7 -10 -15 0 -9 -7 -18 -15 -21 -8 -4 -15
-12 -15 -20 0 -8 -7 -14 -15 -14 -8 0 -15 -7 -15 -15 0 -8 -4 -15 -10 -15 -5
0 -10 -9 -10 -20 0 -11 -7 -20 -15 -20 -8 0 -15 -5 -15 -10 0 -6 -13 -24 -30
-40 -17 -16 -30 -34 -30 -40 0 -5 -4 -10 -10 -10 -5 0 -10 -7 -10 -15 0 -8 -9
-15 -20 -15 -11 0 -20 -4 -20 -9 0 -14 -45 -61 -59 -61 -6 0 -11 -7 -11 -15 0
-8 -7 -15 -15 -15 -8 0 -15 -7 -15 -15 0 -8 -7 -15 -15 -15 -8 0 -19 -9 -25
-20 -6 -11 -17 -20 -25 -20 -8 0 -15 -7 -15 -15 0 -8 -9 -15 -20 -15 -11 0
-20 -6 -20 -14 0 -13 -48 -29 -62 -20 -4 3 -10 21 -13 42 -12 76 -28 122 -42
122 -7 0 -16 7 -19 15 -5 12 -30 15 -140 15 -121 0 -136 -2 -154 -20 -11 -11
-20 -24 -20 -30 0 -5 -4 -10 -9 -10 -18 0 -33 -96 -47 -307 -4 -51 -10 -93
-15 -93 -5 0 -9 -29 -9 -65 0 -36 -4 -65 -9 -65 -5 0 -11 -26 -14 -57 -6 -67
-16 -123 -53 -288 -14 -66 -28 -135 -31 -153 -3 -18 -9 -35 -14 -38 -5 -3 -9
-18 -9 -35 0 -16 -4 -29 -10 -29 -5 0 -10 -16 -10 -35 0 -19 -4 -35 -8 -35 -4
0 -16 -28 -26 -62 -19 -66 -28 -89 -82 -205 -19 -39 -34 -76 -34 -82 0 -6 -4
-11 -10 -11 -5 0 -10 -9 -10 -20 0 -11 -4 -20 -10 -20 -5 0 -10 -6 -10 -14 0
-8 -6 -16 -14 -19 -32 -12 -46 -108 -46 -306 l0 -191 -185 0 c-158 0 -185 -2
-185 -15 0 -8 -7 -15 -15 -15 -9 0 -19 -8 -22 -17 -4 -10 -11 -21 -17 -25 -30
-20 -12 -228 20 -228 8 0 14 -7 14 -15 0 -13 136 -15 1165 -15 1158 0 1165 0
1165 -20 0 -19 7 -20 259 -20 250 0 259 1 264 20 5 20 14 20 511 20 443 0 506
2 506 15 0 8 6 15 14 15 8 0 17 13 21 30 4 16 11 32 16 35 23 15 2 165 -23
165 -5 0 -8 9 -8 20 0 11 -6 20 -14 20 -8 0 -16 7 -20 15 -5 13 -65 15 -456
15 l-450 0 0 265 c0 170 -4 265 -10 265 -5 0 -10 14 -10 30 0 18 -6 33 -15 36
-8 4 -15 12 -15 20 0 9 -11 14 -30 14 l-30 0 0 150 0 150 1650 0 1650 0 0
-150 0 -150 -25 0 c-16 0 -25 -6 -25 -15 0 -8 -4 -15 -10 -15 -5 0 -10 -9 -10
-20 0 -11 -4 -20 -10 -20 -6 0 -10 -100 -10 -280 l0 -280 -910 0 c-783 0 -910
-2 -910 -14 0 -8 -9 -18 -20 -21 -11 -3 -20 -13 -20 -21 0 -8 -4 -14 -10 -14
-5 0 -10 -13 -10 -29 0 -17 -4 -33 -10 -36 -5 -3 -10 -26 -10 -50 0 -24 5 -47
10 -50 6 -3 10 -19 10 -36 0 -16 5 -29 10 -29 6 0 10 -6 10 -14 0 -8 9 -17 19
-21 11 -3 22 -12 25 -20 5 -13 298 -15 2319 -15 l2314 0 27 25 c14 13 26 29
26 35 0 5 3 10 8 10 4 0 13 12 20 27 14 32 16 173 2 173 -5 0 -10 6 -10 14 0
7 -11 25 -25 40 -14 15 -25 31 -25 37 0 5 -69 9 -170 9 l-170 0 0 265 c0 170
-4 265 -10 265 -5 0 -10 16 -10 35 0 19 -4 35 -10 35 -5 0 -10 7 -10 15 0 8
-4 15 -9 15 -5 0 -11 8 -14 18 -6 17 -37 72 -47 82 -13 13 -40 70 -40 84 0 9
-4 16 -10 16 -5 0 -10 7 -10 15 0 8 -4 15 -8 15 -5 0 -14 22 -21 49 -7 28 -16
51 -20 53 -4 2 -20 46 -35 98 -16 52 -33 99 -37 105 -5 5 -9 22 -9 37 0 15 -4
28 -9 28 -8 0 -12 21 -28 133 -3 20 -9 37 -14 37 -5 0 -9 19 -9 43 0 24 -4 47
-9 53 -5 5 -11 29 -13 54 -3 25 -14 108 -26 185 -11 77 -26 187 -32 245 -14
135 -27 180 -52 180 -10 0 -18 7 -18 15 0 13 -22 15 -140 15 -118 0 -140 -2
-140 -15 0 -8 -9 -15 -19 -15 -15 0 -22 -12 -32 -50 -11 -42 -17 -50 -36 -50
-12 0 -27 9 -33 20 -6 11 -20 20 -30 20 -11 0 -20 7 -20 15 0 8 -9 15 -20 15
-11 0 -20 7 -20 15 0 8 -5 15 -11 15 -14 0 -59 47 -59 61 0 5 -9 9 -20 9 -11
0 -20 5 -20 10 0 6 -20 31 -45 56 -25 24 -45 49 -45 54 0 6 -7 10 -16 10 -9 0
-18 9 -21 20 -3 11 -9 20 -14 20 -5 0 -9 7 -9 15 0 8 -7 15 -15 15 -8 0 -15 6
-15 14 0 8 -7 16 -15 20 -8 3 -15 11 -15 17 0 6 -11 22 -25 35 -14 13 -25 28
-25 34 0 5 -4 10 -10 10 -5 0 -10 7 -10 15 0 8 -4 15 -10 15 -5 0 -10 9 -10
20 0 11 -6 20 -14 20 -7 0 -16 8 -19 18 -8 23 -40 76 -49 80 -5 2 -8 10 -8 18
0 8 -4 14 -10 14 -5 0 -10 7 -10 15 0 8 -4 15 -10 15 -5 0 -10 9 -10 20 0 11
-4 20 -10 20 -5 0 -10 7 -10 15 0 8 -4 15 -10 15 -5 0 -10 7 -10 15 0 8 -4 15
-10 15 -5 0 -10 9 -10 20 0 11 -4 20 -10 20 -5 0 -10 7 -10 15 0 8 -4 15 -10
15 -5 0 -10 7 -10 16 0 18 -31 77 -42 82 -5 2 -8 12 -8 23 0 10 -4 19 -9 19
-4 0 -14 20 -21 45 -7 25 -17 45 -21 45 -5 0 -9 9 -9 20 0 11 -4 20 -9 20 -5
0 -12 12 -16 27 -7 28 -38 104 -55 135 -6 10 -10 29 -10 43 0 14 -4 25 -10 25
-5 0 -10 9 -10 20 0 11 -4 20 -10 20 -5 0 -10 14 -10 30 0 17 -4 30 -10 30 -7
0 -10 149 -10 426 0 360 -2 434 -16 481 -9 30 -22 57 -30 60 -8 3 -14 11 -14
19 0 12 -35 14 -195 14 -123 0 -195 -4 -195 -10 0 -6 -9 -19 -20 -30 -11 -11
-20 -29 -20 -40 0 -11 -4 -20 -10 -20 -6 0 -10 -122 -10 -346 0 -319 -1 -348
-19 -387 -11 -24 -23 -55 -26 -70 -4 -15 -11 -27 -16 -27 -5 0 -9 -9 -9 -20 0
-11 -4 -20 -10 -20 -5 0 -10 -13 -10 -30 0 -16 -4 -30 -8 -30 -5 0 -14 -16
-22 -35 -8 -19 -17 -35 -22 -35 -4 0 -8 -5 -8 -11 0 -13 -31 -82 -40 -89 -4
-3 -13 -20 -21 -37 -8 -18 -17 -33 -21 -33 -5 0 -8 -13 -8 -30 0 -16 -4 -30
-10 -30 -5 0 -10 -6 -10 -14 0 -8 -7 -16 -15 -20 -8 -3 -15 -12 -15 -21 0 -8
-4 -15 -10 -15 -5 0 -10 -7 -10 -15 0 -8 -4 -15 -8 -15 -5 0 -14 -16 -22 -35
-8 -19 -17 -35 -22 -35 -4 0 -8 -7 -8 -15 0 -8 -4 -15 -8 -15 -5 0 -14 -16
-22 -35 -8 -19 -17 -35 -22 -35 -4 0 -8 -7 -8 -15 0 -8 -7 -15 -15 -15 -8 0
-15 -7 -15 -15 0 -9 -7 -18 -15 -21 -8 -4 -15 -12 -15 -20 0 -8 -4 -14 -10
-14 -5 0 -10 -7 -10 -15 0 -8 -6 -15 -13 -15 -7 0 -19 -16 -27 -35 -8 -19 -20
-35 -27 -35 -7 0 -13 -7 -13 -15 0 -8 -7 -15 -15 -15 -8 0 -15 -5 -15 -10 0
-6 -13 -24 -30 -40 -16 -16 -30 -34 -30 -40 0 -5 -7 -10 -15 -10 -8 0 -15 -6
-15 -14 0 -8 -9 -18 -20 -21 -11 -3 -20 -13 -20 -21 0 -8 -7 -14 -15 -14 -8 0
-15 -7 -15 -15 0 -8 -9 -15 -20 -15 -11 0 -20 -6 -20 -14 0 -7 -9 -16 -20 -19
-11 -3 -20 -12 -20 -21 0 -9 -8 -16 -20 -16 -11 0 -20 -7 -20 -15 0 -9 -9 -15
-25 -15 -16 0 -25 -6 -25 -15 0 -8 -9 -15 -20 -15 -10 0 -24 -9 -30 -20 -6
-11 -20 -20 -30 -20 -11 0 -20 -7 -20 -15 0 -10 -10 -15 -30 -15 -20 0 -30 -5
-30 -15 0 -9 -9 -15 -23 -15 -13 0 -34 -9 -47 -20 -13 -11 -36 -20 -52 -20
-18 0 -28 -5 -28 -15 0 -11 -12 -15 -45 -15 -29 0 -48 -5 -51 -14 -3 -9 -31
-15 -81 -20 -43 -3 -80 -11 -84 -18 -11 -17 -247 -18 -257 -1 -4 6 -43 15 -87
19 -44 4 -86 13 -93 21 -7 7 -33 13 -58 13 -32 0 -44 4 -44 15 0 10 -10 15
-28 15 -16 0 -39 9 -52 20 -13 11 -31 20 -40 20 -10 0 -20 7 -24 15 -3 9 -18
15 -36 15 -20 0 -30 5 -30 15 0 8 -9 15 -20 15 -11 0 -20 7 -20 15 0 8 -11 17
-24 21 -14 3 -27 12 -30 20 -3 8 -17 14 -31 14 -15 0 -25 6 -25 14 0 8 -9 18
-20 21 -11 3 -20 13 -20 21 0 8 -6 14 -14 14 -8 0 -16 7 -20 15 -3 8 -12 15
-21 15 -8 0 -15 7 -15 15 0 8 -9 15 -20 15 -11 0 -20 5 -20 10 0 6 -13 24 -30
40 -16 16 -30 34 -30 40 0 5 -7 10 -15 10 -8 0 -15 6 -15 14 0 8 -9 18 -20 21
-11 3 -20 13 -20 21 0 8 -4 14 -10 14 -5 0 -10 5 -10 10 0 6 -13 24 -30 40
-16 16 -30 34 -30 40 0 5 -7 10 -15 10 -8 0 -15 7 -15 15 0 8 -4 15 -10 15 -5
0 -10 7 -10 15 0 8 -4 15 -10 15 -5 0 -10 9 -10 20 0 11 -4 20 -10 20 -5 0
-10 7 -10 15 0 8 -7 15 -15 15 -8 0 -15 7 -15 15 0 9 -7 18 -15 21 -8 4 -15
12 -15 20 0 8 -3 14 -7 14 -5 0 -21 29 -38 65 -16 36 -33 65 -37 65 -5 0 -8 7
-8 15 0 8 -4 15 -10 15 -5 0 -10 7 -10 15 0 8 -4 15 -10 15 -5 0 -10 9 -10 20
0 11 -4 20 -9 20 -5 0 -11 8 -14 18 -4 9 -20 40 -36 67 -17 28 -30 58 -31 68
0 9 -4 17 -10 17 -5 0 -10 7 -10 15 0 8 -4 15 -10 15 -5 0 -10 9 -10 20 0 11
-4 20 -10 20 -5 0 -10 14 -10 30 0 17 -3 30 -8 30 -4 0 -13 15 -21 33 -8 17
-23 52 -35 77 -20 42 -21 67 -27 410 -6 350 -11 420 -30 420 -5 0 -9 7 -9 15
0 8 -4 15 -10 15 -5 0 -10 7 -10 15 0 13 -28 15 -195 15 -123 0 -195 -4 -195
-10z m240 -345 c0 -8 5 -15 10 -15 7 0 10 -600 10 -1781 l0 -1780 -52 3 -53 3
-3 1793 -2 1792 45 0 c33 0 45 -4 45 -15z m3814 -7 c8 -30 8 -3516 0 -3545 -5
-19 -13 -23 -50 -23 -32 0 -44 4 -44 15 0 8 -4 15 -10 15 -7 0 -10 595 -10
1765 0 1170 3 1765 10 1765 6 0 10 7 10 15 0 11 12 15 44 15 37 0 45 -4 50
-22z m-304 -1953 l0 -945 -110 0 -110 0 0 765 c0 503 3 765 10 765 6 0 10 4
10 9 0 6 11 22 25 37 14 15 25 33 25 40 0 8 4 14 8 14 5 0 14 16 22 35 8 19
17 35 22 35 4 0 8 14 8 30 0 17 5 30 10 30 6 0 10 7 10 15 0 8 5 15 10 15 6 0
10 9 10 20 0 11 5 20 10 20 6 0 10 7 10 15 0 8 5 15 10 15 6 0 10 7 10 15 0 8
2 15 5 15 3 0 5 -425 5 -945z m-3264 833 c4 -10 10 -18 14 -18 5 0 11 -13 15
-30 4 -16 11 -30 16 -30 5 0 9 -9 9 -20 0 -11 5 -20 10 -20 6 0 10 -7 10 -15
0 -8 3 -15 8 -15 4 0 13 -15 21 -32 8 -18 19 -36 25 -40 8 -5 11 -243 11 -800
l0 -793 -87 -3 -88 -3 1 953 c1 993 0 967 35 866z m-546 -948 l0 -870 -110 0
-110 0 0 653 0 652 25 50 c13 28 25 56 25 63 0 6 5 12 10 12 6 0 10 9 10 20 0
11 5 20 10 20 6 0 10 7 10 15 0 8 5 15 10 15 6 0 10 9 10 20 0 11 5 20 10 20
6 0 10 5 10 11 0 5 9 29 19 52 11 24 23 55 26 70 4 15 11 27 16 27 5 0 9 9 9
20 0 11 5 20 10 20 7 0 10 -297 10 -870z m4340 815 c0 -8 4 -15 8 -15 5 0 14
-22 21 -50 7 -27 16 -50 20 -50 7 0 41 -74 41 -90 0 -6 5 -10 10 -10 6 0 10
-7 10 -15 0 -8 5 -15 10 -15 6 0 10 -9 10 -20 0 -11 5 -20 10 -20 6 0 10 -7
10 -15 0 -8 3 -15 8 -15 4 0 13 -13 20 -28 9 -22 12 -176 10 -683 l-3 -654
-102 -3 -103 -3 0 851 c0 560 3 850 10 850 6 0 10 -7 10 -15z m-3417 -435 c9
-11 17 -27 17 -35 0 -8 7 -15 15 -15 8 0 15 -7 15 -15 0 -8 7 -15 15 -15 8 0
15 -6 15 -14 0 -8 7 -16 15 -20 8 -3 15 -12 15 -21 0 -8 7 -15 15 -15 8 0 15
-7 15 -15 0 -8 7 -15 15 -15 8 0 15 -6 15 -14 0 -8 9 -17 20 -21 12 -4 21 -18
25 -38 3 -18 4 -248 3 -512 l-3 -480 -122 -3 -123 -3 0 636 c0 349 3 635 8
635 4 0 15 -9 25 -20z m2457 -610 l0 -600 -131 0 -132 0 5 474 5 474 31 30
c18 17 32 36 32 42 0 5 9 10 20 10 11 0 20 7 20 15 0 8 5 15 10 15 6 0 10 6
10 14 0 8 9 18 20 21 11 3 20 13 20 21 0 8 5 14 10 14 6 0 10 7 10 15 0 8 6
15 14 15 7 0 16 9 19 20 3 11 12 20 21 20 14 0 16 -58 16 -600z m1370 350 c0
-6 14 -24 30 -40 17 -16 30 -34 30 -40 0 -5 5 -10 10 -10 6 0 10 -7 10 -15 0
-8 7 -15 15 -15 8 0 15 -6 15 -14 0 -8 7 -16 15 -20 8 -3 15 -12 15 -21 0 -8
7 -15 15 -15 8 0 15 -7 15 -15 0 -8 5 -15 10 -15 6 0 10 -7 10 -15 0 -8 5 -15
10 -15 6 0 10 -130 10 -370 l0 -371 -112 3 -113 3 -3 498 c-1 329 1 497 8 497
5 0 10 -5 10 -10z m-5160 -505 l0 -486 -122 3 -123 3 -3 315 c-3 333 0 380 23
380 8 0 15 7 15 15 0 9 7 18 15 21 8 4 15 12 15 20 0 8 7 14 15 14 8 0 15 4
15 9 0 6 11 22 25 37 14 15 25 33 25 40 0 8 7 14 15 14 8 0 15 7 15 15 0 8 7
15 15 15 8 0 15 9 15 20 0 11 5 20 10 20 6 0 10 7 10 15 0 8 5 15 10 15 7 0
10 -168 10 -485z m1781 355 c10 0 19 -7 19 -15 0 -9 12 -18 30 -21 17 -4 30
-13 30 -20 0 -9 11 -14 30 -14 20 0 30 -5 30 -15 0 -9 9 -15 23 -15 53 -1 52
7 55 -360 l3 -340 -131 0 -130 0 0 384 c0 339 6 489 18 434 2 -10 12 -18 23
-18z m1559 -208 c0 -110 -3 -287 -7 -395 l-6 -197 -124 0 -123 0 0 308 c0 169
3 317 6 330 4 14 14 22 28 22 12 0 29 9 39 20 9 11 26 20 37 20 11 0 20 7 20
15 0 10 10 15 30 15 19 0 30 5 30 14 0 8 11 17 25 20 14 4 25 11 25 16 0 6 5
10 10 10 6 0 10 -73 10 -198z m-1104 -17 c11 -10 36 -15 85 -15 55 0 69 -3 69
-15 0 -10 10 -15 30 -15 l30 0 0 -265 0 -265 -125 0 -125 0 0 295 c0 300 2
315 36 280z m654 -295 l0 -280 -130 0 -130 0 0 265 0 265 60 0 c47 0 60 3 60
15 0 12 14 15 70 15 l70 0 0 -280z m-3760 -665 l0 -915 -230 0 -230 0 0 140
c0 130 2 142 25 184 14 25 25 52 25 60 0 9 5 16 10 16 6 0 10 7 10 15 0 8 3
15 8 15 8 0 24 33 47 100 8 25 22 59 30 77 9 17 18 45 21 62 4 17 10 31 15 31
5 0 9 13 9 29 0 17 5 33 10 36 6 3 10 19 10 36 0 16 5 29 10 29 6 0 10 11 10
25 0 14 4 33 9 43 10 20 49 174 63 247 5 28 14 70 20 95 5 25 12 68 15 95 3
28 9 54 14 59 5 6 9 32 9 58 0 26 5 48 10 48 6 0 10 25 10 55 0 30 4 74 10 97
5 24 13 73 16 111 5 57 8 67 25 67 19 0 19 -19 19 -915z m6880 851 c0 -36 4
-67 9 -70 4 -3 11 -38 14 -78 4 -40 11 -93 16 -118 17 -85 43 -225 48 -262 3
-21 9 -38 14 -38 5 0 9 -16 9 -35 0 -19 5 -35 10 -35 6 0 10 -16 10 -35 0 -19
5 -35 10 -35 6 0 10 -13 10 -29 0 -17 5 -33 10 -36 6 -3 10 -19 10 -36 0 -16
5 -29 10 -29 6 0 10 -13 10 -29 0 -17 4 -32 9 -35 4 -3 17 -35 27 -71 10 -36
22 -65 26 -65 5 0 8 -9 8 -20 0 -11 5 -20 10 -20 6 0 10 -13 10 -30 0 -16 5
-30 10 -30 6 0 10 -7 10 -15 0 -8 5 -15 10 -15 6 0 10 -9 10 -20 0 -11 4 -20
9 -20 5 0 12 -13 16 -30 4 -16 10 -30 13 -30 4 0 13 -15 21 -32 8 -18 19 -36
25 -40 7 -5 12 -81 14 -218 l3 -210 -230 0 -231 0 0 915 c0 908 0 915 20 915
18 0 20 -7 20 -64z m-397 14 c9 -11 26 -20 37 -20 11 0 20 -7 20 -15 0 -8 9
-15 20 -15 11 0 20 -7 20 -15 0 -8 9 -15 20 -15 36 0 41 -31 38 -237 l-3 -198
-95 0 -95 0 -3 255 c-1 140 0 260 3 267 6 18 18 16 38 -7z m-6065 -282 l-3
-233 -105 0 -105 0 -3 163 c-2 138 0 163 13 168 8 4 15 12 15 20 0 8 10 14 25
14 16 0 25 6 25 15 0 8 9 15 20 15 10 0 24 9 30 20 6 11 20 20 30 20 11 0 20
7 20 15 0 8 9 15 20 15 20 0 20 -5 18 -232z m862 -583 c0 -8 5 -15 10 -15 7 0
10 -47 8 -132 l-3 -133 -25 -3 c-19 -2 -31 -14 -45 -45 -18 -38 -20 -68 -23
-314 l-3 -273 -499 0 -500 0 0 434 c0 238 3 448 6 465 l7 31 533 0 c468 0 534
-2 534 -15z m5354 -7 c3 -13 6 -222 6 -465 l0 -443 -470 0 -470 0 0 235 c0
184 -4 250 -16 300 -9 36 -20 65 -25 65 -5 0 -9 7 -9 15 0 9 -9 15 -25 15
l-25 0 0 128 c0 70 3 137 6 150 l6 22 508 0 508 0 6 -22z m-4936 -760 l3 -148
-156 0 -155 0 0 143 c0 79 3 147 7 151 4 3 72 5 152 4 l146 -3 3 -147z m3797
110 c3 -24 5 -83 3 -133 l-3 -90 -152 -3 -153 -3 0 136 0 135 149 0 150 0 6
-42z"/>
<path d="M2350 2436 c0 -8 -8 -17 -19 -21 -12 -4 -24 -25 -35 -63 -20 -73 -20
-101 0 -174 13 -44 21 -58 35 -58 11 0 19 -7 19 -15 0 -13 52 -15 410 -15 397
0 411 1 430 20 11 11 20 25 20 30 0 6 5 10 10 10 6 0 10 7 10 15 0 8 5 15 10
15 6 0 10 35 10 85 0 50 -4 85 -10 85 -5 0 -10 9 -10 20 0 11 -4 20 -10 20 -5
0 -10 7 -10 15 0 8 -7 15 -15 15 -8 0 -15 7 -15 15 0 13 -53 15 -415 15 -354
0 -415 -2 -415 -14z"/>
<path d="M3440 2440 c0 -5 -9 -19 -20 -30 -11 -11 -20 -29 -20 -40 0 -11 -4
-20 -10 -20 -6 0 -10 -35 -10 -85 0 -50 4 -85 10 -85 6 0 10 -13 10 -30 0 -23
4 -30 20 -30 11 0 20 -7 20 -15 0 -13 32 -15 225 -15 212 0 226 1 245 20 11
11 20 25 20 30 0 6 4 10 9 10 10 0 31 77 31 116 0 52 -32 146 -52 152 -10 2
-18 11 -18 18 0 12 -41 14 -230 14 -147 0 -230 -4 -230 -10z"/>
<path d="M6730 2135 c0 -8 -7 -15 -16 -15 -9 0 -18 -9 -21 -20 -3 -11 -9 -20
-13 -20 -7 0 -22 -76 -22 -115 0 -42 15 -115 23 -115 5 0 9 -7 9 -15 0 -8 7
-15 15 -15 9 0 18 -7 21 -15 5 -12 31 -15 150 -15 131 0 146 2 164 20 11 11
20 25 20 30 0 6 3 10 8 10 4 0 13 12 20 27 14 32 16 173 2 173 -5 0 -10 9 -10
20 0 11 -4 20 -10 20 -5 0 -10 7 -10 15 0 8 -7 15 -15 15 -8 0 -15 7 -15 15 0
13 -23 15 -150 15 -127 0 -150 -2 -150 -15z"/>
<path d="M7290 2135 c0 -8 -4 -15 -10 -15 -5 0 -10 -7 -10 -15 0 -8 -4 -15
-10 -15 -5 0 -10 -9 -10 -20 0 -11 -4 -20 -10 -20 -6 0 -10 -35 -10 -85 0 -50
4 -85 10 -85 6 0 10 -7 10 -15 0 -8 5 -15 10 -15 6 0 10 -7 10 -15 0 -8 5 -15
10 -15 6 0 10 -7 10 -15 0 -13 41 -15 310 -15 269 0 310 2 310 15 0 8 7 15 15
15 8 0 15 7 15 15 0 8 4 15 9 15 11 0 31 78 31 121 0 51 -32 141 -52 147 -10
2 -18 11 -18 18 0 12 -53 14 -310 14 -269 0 -310 -2 -310 -15z"/>
<path d="M1552 1165 c-7 -8 -22 -15 -32 -15 -11 0 -20 -7 -20 -15 0 -8 -4 -15
-8 -15 -10 0 -32 -82 -32 -121 0 -45 30 -139 46 -146 8 -3 14 -11 14 -19 0
-12 83 -14 525 -14 343 0 525 3 525 10 0 6 9 19 20 30 11 11 20 29 20 40 0 11
5 20 10 20 14 0 12 112 -2 160 -7 22 -16 40 -20 40 -5 0 -8 7 -8 15 0 8 -9 15
-19 15 -11 0 -26 7 -35 15 -22 22 -964 22 -984 0z"/>
<path d="M2852 1165 c-7 -8 -22 -15 -32 -15 -11 0 -20 -7 -20 -15 0 -8 -4 -15
-10 -15 -5 0 -10 -7 -10 -15 0 -8 -4 -15 -10 -15 -6 0 -10 -40 -10 -100 0 -60
4 -100 10 -100 6 0 10 -9 10 -20 0 -11 7 -20 15 -20 8 0 15 -7 15 -15 0 -13
33 -15 240 -15 153 0 240 4 240 10 0 6 8 18 19 29 32 32 45 110 31 191 -6 38
-16 70 -21 70 -5 0 -9 7 -9 15 0 8 -9 15 -19 15 -11 0 -26 7 -35 15 -21 22
-385 21 -404 0z"/>
</g>
</svg>
