<?xml version="1.0" standalone="no"?>
<!DOCTYPE svg PUBLIC "-//W3C//DTD SVG 20010904//EN"
 "http://www.w3.org/TR/2001/REC-SVG-20010904/DTD/svg10.dtd">
<svg version="1.0" xmlns="http://www.w3.org/2000/svg"
 width="512.000000pt" height="512.000000pt" viewBox="0 0 512.000000 512.000000"
 preserveAspectRatio="xMidYMid meet">

<g transform="translate(0.000000,512.000000) scale(0.100000,-0.100000)" stroke="none">
<path d="M2511 5106 c-44 -24 -50 -51 -51 -203 l0 -141 -52 -45 c-116 -98
-261 -173 -417 -215 -85 -23 -116 -26 -271 -27 -96 0 -185 -4 -198 -9 -25 -8
-52 -54 -52 -88 0 -41 72 -149 153 -230 l77 -78 0 -188 0 -188 -75 -18 c-102
-24 -221 -34 -333 -27 -126 8 -165 -9 -178 -75 -18 -98 197 -334 380 -415 l46
-20 0 -140 c0 -161 12 -145 -127 -174 -55 -12 -126 -17 -242 -16 l-163 0 -29
-29 c-42 -41 -39 -81 12 -161 22 -35 69 -93 102 -128 59 -60 185 -153 228
-166 18 -6 19 -15 17 -158 l-3 -152 -65 -17 c-84 -23 -231 -35 -344 -28 -100
6 -135 -4 -162 -44 -24 -38 -13 -85 40 -164 82 -124 227 -244 357 -294 l59
-23 0 -136 c0 -134 -1 -137 -23 -142 -140 -33 -193 -38 -345 -38 -159 1 -164
0 -187 -23 -39 -39 -42 -72 -11 -132 88 -168 300 -336 473 -375 l53 -12 0
-193 0 -192 -81 -4 c-74 -3 -83 -6 -105 -31 -33 -38 -33 -96 0 -134 l24 -28
1542 0 1542 0 24 28 c33 38 33 96 0 134 -22 25 -31 28 -105 31 l-81 4 0 192 0
193 53 12 c173 39 385 207 473 375 31 60 28 93 -11 132 -23 23 -28 24 -187 23
-152 0 -205 5 -345 38 -22 5 -23 8 -23 142 l0 136 48 17 c128 46 284 173 368
299 53 80 64 127 40 165 -27 40 -62 50 -162 44 -113 -7 -260 5 -344 28 l-65
17 -3 150 -2 150 66 35 c136 71 324 284 324 367 0 25 -8 43 -29 63 l-29 29
-163 0 c-116 -1 -187 4 -242 16 -139 29 -127 13 -127 174 l0 140 56 25 c180
83 388 313 370 410 -13 66 -52 83 -178 75 -112 -7 -231 3 -333 27 l-75 18 0
192 0 193 37 28 c43 33 145 159 173 214 27 53 25 83 -9 121 l-29 33 -184 1
c-164 0 -193 3 -280 27 -159 42 -315 125 -434 229 l-34 30 0 139 c0 86 -5 148
-12 164 -22 48 -88 68 -137 41z m114 -576 c182 -139 385 -222 618 -252 l91
-11 -35 -29 c-44 -37 -158 -92 -229 -109 -42 -11 -160 -14 -510 -14 -414 0
-461 2 -525 19 -79 21 -166 64 -216 105 l-33 28 91 11 c234 31 440 115 614
251 35 27 65 50 67 50 1 1 32 -21 67 -49z m-615 -598 c57 -15 122 -17 550 -17
504 0 490 -1 638 41 22 6 22 6 22 -110 l0 -116 -660 0 -660 0 0 116 c0 116 0
116 23 110 12 -4 51 -14 87 -24z m1353 -427 c87 -28 229 -55 288 -55 22 0 39
-4 39 -8 0 -29 -177 -121 -268 -141 -37 -8 -303 -11 -865 -11 -882 0 -862 -1
-986 56 -56 25 -140 83 -141 97 0 4 17 7 39 7 59 0 200 27 282 54 l74 24 730
1 730 1 78 -25z m17 -515 l0 -100 -820 0 -820 0 0 100 0 100 820 0 820 0 0
-100z m136 -321 c76 -26 241 -59 302 -59 l47 -1 -34 -29 c-19 -16 -64 -45
-100 -64 -132 -69 -82 -66 -1171 -66 -1089 0 -1039 -3 -1171 66 -36 19 -81 48
-100 64 l-34 29 45 1 c67 0 205 27 285 54 l70 24 901 1 c887 1 902 1 960 -20z
m64 -519 l0 -100 -1020 0 -1020 0 0 100 0 100 1020 0 1020 0 0 -100z m145
-325 c90 -29 228 -55 286 -55 22 0 39 -4 39 -8 0 -12 -75 -64 -136 -95 -117
-59 -64 -57 -1355 -57 -1126 0 -1187 1 -1249 19 -95 27 -240 107 -240 133 0 4
17 8 39 8 58 0 196 27 281 54 l75 24 1090 1 1090 1 80 -25z m-25 -515 l0 -100
-1140 0 -1140 0 0 100 0 100 1140 0 1140 0 0 -100z m143 -325 c87 -28 229 -55
288 -55 22 0 39 -3 39 -8 0 -15 -129 -94 -196 -120 l-69 -27 -460 -5 c-422 -5
-463 -7 -488 -23 -16 -10 -33 -29 -39 -42 -16 -34 -2 -91 29 -115 25 -19 38
-20 409 -20 l384 0 0 -185 0 -185 -1180 0 -1180 0 0 185 0 185 384 0 c385 0
385 0 411 23 34 29 44 87 20 123 -34 52 -49 54 -508 54 -454 0 -479 2 -594 55
-54 24 -142 85 -143 98 0 4 17 7 39 7 59 0 200 27 282 54 l74 24 1210 1 1210
1 78 -25z"/>
<path d="M2523 755 c-99 -43 -71 -185 36 -185 96 0 138 124 59 173 -37 24 -61
27 -95 12z"/>
</g>
</svg>
