<?xml version="1.0" standalone="no"?>
<!DOCTYPE svg PUBLIC "-//W3C//DTD SVG 20010904//EN"
 "http://www.w3.org/TR/2001/REC-SVG-20010904/DTD/svg10.dtd">
<svg version="1.0" xmlns="http://www.w3.org/2000/svg"
 width="512.000000pt" height="512.000000pt" viewBox="0 0 512.000000 512.000000"
 preserveAspectRatio="xMidYMid meet">

<g transform="translate(0.000000,512.000000) scale(0.100000,-0.100000)" stroke="none">
<path d="M1249 3893 c-8 -9 -30 -129 -54 -297 l-41 -281 -144 -5 c-144 -5
-174 -11 -183 -33 -2 -7 -39 -139 -82 -294 l-78 -283 -314 0 c-300 0 -314 -1
-333 -20 -11 -11 -20 -27 -20 -36 0 -29 340 -768 362 -786 19 -17 120 -18
1803 -18 1209 0 1809 3 1862 11 243 33 522 141 742 286 113 75 246 209 290
292 56 106 75 208 47 247 -14 18 -32 19 -343 24 l-328 5 -196 284 c-108 156
-206 293 -219 303 -21 17 -50 18 -444 18 l-421 0 -99 280 c-54 154 -105 289
-113 300 -14 20 -22 20 -847 20 -763 0 -835 -1 -847 -17z m351 -343 l0 -240
-160 0 c-146 0 -160 2 -160 18 0 9 14 117 32 240 l31 222 129 0 128 0 0 -240z
m500 0 l0 -240 -190 0 -190 0 0 240 0 240 190 0 190 0 0 -240z m500 0 l0 -240
-190 0 -190 0 0 240 0 240 190 0 190 0 0 -240z m303 113 c25 -71 64 -179 86
-240 l40 -113 -154 0 -155 0 0 240 0 240 69 0 69 0 45 -127z m-1704 -479 l31
-6 0 -239 0 -239 -220 0 c-171 0 -218 3 -215 13 2 6 32 113 66 237 33 124 63
228 66 233 5 9 228 10 272 1z m2571 -239 l0 -245 -255 0 -255 0 0 245 0 245
255 0 255 0 0 -245z m345 13 c88 -127 164 -238 168 -245 7 -11 -29 -13 -193
-13 l-200 0 0 238 c0 131 3 242 7 245 3 4 18 7 32 7 23 0 47 -29 186 -232z
m-2255 -18 l0 -240 -255 0 -255 0 0 240 0 240 255 0 255 0 0 -240z m640 0 l0
-240 -260 0 -260 0 0 240 0 240 260 0 260 0 0 -240z m640 0 l0 -240 -260 0
-260 0 0 240 0 240 260 0 260 0 0 -240z m1850 -370 c0 -6 -14 -38 -31 -72 -96
-191 -446 -409 -812 -505 l-102 -28 -1805 -3 -1805 -2 -138 302 c-75 167 -137
306 -137 311 0 4 1087 7 2415 7 1648 0 2415 -3 2415 -10z"/>
<path d="M753 2440 c-54 -33 -66 -69 -61 -183 8 -167 23 -176 316 -176 226 -1
247 4 282 62 16 26 20 50 19 122 -1 189 -11 195 -309 195 -196 0 -218 -2 -247
-20z m437 -170 l0 -70 -190 0 -190 0 0 70 0 70 190 0 190 0 0 -70z"/>
<path d="M1625 2450 c-11 -4 -31 -20 -45 -35 -24 -25 -25 -33 -25 -140 0 -185
13 -194 308 -194 222 -1 253 5 287 61 19 29 21 45 18 133 -5 116 -21 157 -69
174 -37 13 -443 14 -474 1z m425 -180 l0 -70 -190 0 -190 0 0 70 0 70 190 0
190 0 0 -70z"/>
<path d="M2448 2420 l-40 -40 4 -112 c6 -182 6 -182 298 -186 190 -2 219 -1
250 15 57 29 72 71 67 183 -8 177 -14 180 -317 180 l-222 0 -40 -40z m460
-147 l-3 -68 -186 -3 -187 -2 -3 37 c-2 21 -3 53 -1 71 l3 32 190 0 190 0 -3
-67z"/>
<path d="M3772 2399 c-12 -5 -27 -20 -32 -34 -15 -39 -12 -151 5 -191 13 -33
17 -35 52 -32 34 3 39 7 51 43 16 45 10 178 -8 200 -15 18 -42 24 -68 14z"/>
<path d="M4047 2389 c-26 -19 -27 -25 -27 -107 0 -102 13 -136 54 -140 54 -6
66 18 66 133 0 106 -3 116 -46 129 -14 4 -30 -1 -47 -15z"/>
<path d="M4350 2403 c-32 -11 -40 -37 -40 -128 0 -105 13 -135 60 -135 47 0
60 30 60 135 0 58 -5 97 -12 107 -15 19 -47 28 -68 21z"/>
<path d="M783 1800 c-66 -14 -128 -45 -175 -88 -90 -82 -200 -82 -284 -1 -40
39 -91 38 -113 -3 -14 -24 -13 -29 12 -66 19 -29 45 -50 94 -74 60 -29 77 -33
148 -33 93 1 154 23 217 81 58 52 101 67 188 67 96 -1 213 -39 323 -105 44
-26 92 -48 106 -48 17 0 39 14 65 41 21 23 64 53 95 68 52 24 66 26 186 25
120 0 137 -3 225 -33 52 -18 123 -48 157 -67 34 -19 69 -34 78 -34 9 0 62 23
118 50 119 58 233 90 326 90 106 0 172 -22 306 -102 44 -26 86 -48 94 -48 7 0
45 20 85 44 39 25 106 56 148 70 155 52 347 27 483 -63 33 -22 70 -41 82 -41
13 0 67 22 120 49 134 67 227 94 306 89 50 -3 86 -15 182 -60 139 -65 205 -82
301 -76 115 7 238 76 259 146 8 27 -27 72 -54 72 -9 0 -43 -21 -75 -45 -66
-50 -102 -60 -185 -52 -56 5 -92 17 -261 93 -151 67 -282 56 -489 -41 l-98
-46 -49 28 c-90 53 -167 79 -274 92 -136 17 -299 -18 -423 -91 l-51 -30 -90
45 c-115 57 -180 76 -282 84 -129 9 -262 -21 -408 -94 l-69 -35 -46 25 c-62
34 -181 75 -264 93 -82 17 -226 18 -299 3 -56 -12 -145 -54 -189 -90 l-27 -21
-63 35 c-136 76 -330 119 -436 97z"/>
<path d="M733 1471 c-50 -17 -105 -52 -151 -97 -29 -28 -106 -46 -154 -35 -42
10 -95 41 -123 71 -10 11 -29 20 -42 20 -25 0 -63 -32 -63 -52 0 -27 42 -80
86 -107 125 -80 300 -64 401 34 106 103 320 80 536 -59 32 -20 65 -36 75 -36
10 0 36 18 57 41 85 87 209 121 363 100 109 -15 215 -50 311 -103 l74 -40 116
56 c150 71 222 90 336 89 109 -1 172 -22 289 -93 45 -27 92 -50 105 -50 13 0
48 16 78 36 202 134 446 136 647 5 34 -23 66 -41 71 -41 5 0 58 24 119 54 137
67 212 89 296 90 60 0 77 -5 187 -58 154 -73 256 -96 346 -77 102 21 194 77
217 130 10 26 10 35 -4 56 -24 36 -60 32 -120 -14 -105 -81 -190 -78 -386 14
-144 67 -213 82 -307 65 -89 -15 -168 -42 -262 -90 l-77 -38 -54 33 c-30 19
-91 46 -135 62 -72 25 -93 28 -210 27 -116 0 -139 -3 -209 -27 -44 -16 -106
-43 -138 -62 l-59 -35 -39 25 c-223 141 -468 146 -730 15 l-75 -38 -49 28
c-134 77 -363 123 -509 102 -86 -12 -206 -63 -241 -100 -17 -19 -19 -19 -114
29 -168 85 -341 111 -459 70z"/>
</g>
</svg>
