<?xml version="1.0" standalone="no"?>
<!DOCTYPE svg PUBLIC "-//W3C//DTD SVG 20010904//EN"
 "http://www.w3.org/TR/2001/REC-SVG-20010904/DTD/svg10.dtd">
<svg version="1.0" xmlns="http://www.w3.org/2000/svg"
 width="512.000000pt" height="512.000000pt" viewBox="0 0 512.000000 512.000000"
 preserveAspectRatio="xMidYMid meet">

<g transform="translate(0.000000,512.000000) scale(0.100000,-0.100000)" stroke="none">
<path d="M1340 5100 c-24 -24 -7 57 -160 -755 -71 -379 -150 -791 -175 -914
l-45 -225 0 -463 c0 -411 -2 -463 -15 -463 -9 0 -27 -11 -40 -25 l-25 -24 0
-430 0 -431 -40 -182 c-38 -174 -40 -192 -40 -354 0 -158 2 -173 21 -198 26
-33 79 -36 109 -6 18 18 20 34 20 188 1 151 4 181 34 317 l33 150 326 3 327 2
0 -570 0 -570 -357 2 -358 3 -5 158 c-4 142 -7 160 -24 173 -33 23 -82 18
-105 -12 -20 -25 -21 -40 -21 -216 0 -197 7 -237 45 -252 9 -3 784 -6 1721 -6
1683 0 1704 0 1724 20 11 11 22 30 25 42 3 13 4 319 3 681 l-3 659 -24 19
c-16 13 -39 19 -77 19 l-53 0 -3 436 -3 436 -24 19 c-30 25 -62 24 -95 -2 -25
-19 -26 -25 -26 -110 l0 -89 -270 0 -270 0 0 363 c1 381 0 374 42 298 19 -34
58 -48 97 -35 20 8 35 32 75 122 27 62 53 109 57 105 4 -4 24 -48 45 -98 42
-102 67 -135 101 -135 38 0 60 17 90 68 l28 47 3 -187 2 -187 27 -20 c32 -26
64 -27 94 -2 l24 19 3 324 3 324 -177 824 c-192 902 -184 874 -253 868 -23 -2
-40 -11 -52 -28 -11 -16 -78 -309 -193 -848 l-176 -822 0 -425 0 -425 -745 0
-745 0 0 460 0 460 -65 328 c-35 180 -114 593 -175 917 -61 325 -112 600 -115
612 -13 56 -86 82 -125 43z m129 -886 c39 -209 71 -391 71 -403 0 -26 -141
-421 -150 -421 -6 0 -153 398 -153 416 -1 31 149 802 154 796 4 -4 39 -178 78
-388z m2405 -461 l128 -591 -47 -81 c-26 -45 -48 -81 -50 -81 -1 0 -24 51 -50
113 -54 126 -77 157 -115 157 -45 0 -66 -26 -115 -142 -26 -62 -50 -116 -54
-120 -3 -4 -28 29 -53 73 l-47 80 129 602 c72 331 130 607 131 612 2 30 28
-84 143 -622z m-2645 -380 l40 -113 -71 0 -70 0 5 28 c3 15 13 69 23 120 10
50 21 89 25 85 5 -5 26 -59 48 -120z m421 -100 c0 -9 -20 -13 -70 -13 l-69 0
39 111 c22 61 43 116 47 123 6 9 51 -181 53 -221z m20 -578 l0 -415 -280 0
-280 0 0 415 0 415 280 0 280 0 0 -415z m0 -910 l0 -345 -320 0 -320 0 0 345
0 345 320 0 320 0 0 -345z m1640 -165 l0 -510 -159 0 c-153 0 -161 -1 -187
-23 -35 -30 -37 -79 -5 -110 20 -21 32 -22 186 -25 l165 -4 0 -399 0 -399
-745 0 -745 0 0 400 0 400 150 0 c172 0 215 11 226 56 9 37 -6 76 -36 91 -17
9 -76 13 -182 13 l-158 0 0 510 0 510 745 0 745 0 0 -510z m700 85 l0 -265
-270 0 -270 0 0 265 0 265 270 0 270 0 0 -265z m155 -985 l0 -565 -347 -3
-348 -2 0 570 0 570 348 -2 347 -3 0 -565z"/>
<path d="M1302 3019 c-47 -24 -83 -66 -101 -118 -7 -22 -11 -119 -11 -266 0
-220 1 -234 21 -259 l20 -26 159 0 159 0 21 27 c21 26 21 35 18 273 -3 226 -5
248 -24 285 -48 92 -170 131 -262 84z m122 -151 c13 -18 16 -55 16 -195 l0
-173 -50 0 -50 0 0 173 c0 184 8 217 50 217 10 0 26 -10 34 -22z"/>
<path d="M1285 2016 c-51 -19 -110 -82 -124 -132 -14 -51 -14 -266 0 -297 18
-40 50 -47 198 -47 191 0 185 -6 189 180 3 136 3 144 -23 196 -44 89 -149 133
-240 100z m95 -156 c18 -18 20 -31 18 -93 l-3 -72 -42 -3 -43 -3 0 85 c0 70 3
87 18 95 24 15 29 14 52 -9z"/>
<path d="M2420 1981 c-252 -81 -406 -319 -370 -570 38 -267 250 -451 520 -451
153 0 270 51 374 161 155 163 189 384 93 589 -36 77 -145 191 -223 232 -109
59 -281 76 -394 39z m255 -145 c164 -50 276 -215 262 -386 -11 -131 -96 -252
-215 -308 -50 -24 -69 -27 -157 -27 -93 0 -104 2 -160 31 -71 37 -148 116
-178 182 -18 39 -22 65 -22 152 0 95 3 110 28 160 84 164 271 247 442 196z"/>
<path d="M2409 1722 c-33 -27 -30 -78 5 -109 15 -12 33 -23 41 -23 29 0 64 23
75 49 30 72 -59 133 -121 83z"/>
<path d="M2621 1714 c-12 -15 -21 -38 -21 -51 0 -32 42 -73 75 -73 35 0 75 42
75 78 0 65 -89 97 -129 46z"/>
<path d="M2330 1553 c-33 -12 -50 -37 -50 -73 0 -72 80 -101 127 -46 29 34 29
58 1 90 -25 26 -54 37 -78 29z"/>
<path d="M2754 1545 c-75 -31 -51 -139 31 -139 27 0 43 6 56 23 52 63 -12 148
-87 116z"/>
<path d="M2423 1358 c-48 -23 -51 -103 -4 -127 82 -44 157 56 87 116 -29 25
-49 28 -83 11z"/>
<path d="M2643 1360 c-46 -19 -57 -83 -20 -118 73 -68 173 33 102 103 -25 26
-45 30 -82 15z"/>
<path d="M2520 837 c-47 -15 -103 -74 -118 -123 -8 -27 -12 -111 -12 -236 0
-182 1 -197 21 -222 l20 -26 158 0 c211 0 196 -19 196 249 0 113 -3 218 -8
233 -11 40 -66 98 -112 119 -45 21 -93 22 -145 6z m91 -147 c17 -10 19 -23 19
-160 l0 -150 -45 0 -45 0 0 140 c0 127 2 142 20 160 23 23 25 23 51 10z"/>
<path d="M2045 692 c-94 -45 -115 -97 -115 -280 0 -190 -8 -182 195 -182 206
0 195 -11 195 193 0 148 -1 154 -26 193 -55 85 -161 117 -249 76z m113 -144
c7 -7 12 -43 12 -90 l0 -78 -45 0 -45 0 0 74 c0 54 4 79 16 90 18 19 45 21 62
4z"/>
<path d="M2962 689 c-88 -44 -112 -104 -112 -279 0 -114 2 -130 21 -154 l20
-26 159 0 159 0 21 27 c20 26 21 37 18 168 -3 119 -6 146 -24 180 -48 92 -170
131 -262 84z m122 -151 c11 -15 16 -45 16 -90 l0 -68 -50 0 -50 0 0 68 c0 73
17 112 50 112 10 0 26 -10 34 -22z"/>
<path d="M3594 1898 c-37 -18 -44 -51 -44 -214 0 -151 1 -156 25 -179 30 -31
77 -33 105 -5 18 18 20 33 20 194 l0 175 -26 20 c-29 23 -48 25 -80 9z"/>
<path d="M3813 1900 c-38 -15 -43 -42 -43 -213 0 -158 1 -164 23 -185 31 -29
77 -29 105 1 21 22 22 33 22 189 0 143 -2 169 -17 186 -21 25 -60 35 -90 22z"/>
<path d="M3755 1049 c-50 -19 -92 -56 -114 -102 -20 -40 -21 -60 -21 -289 0
-316 -15 -292 187 -296 139 -3 150 -2 176 18 l27 21 0 257 c0 248 -1 258 -23
297 -45 79 -153 123 -232 94z m103 -353 l2 -186 -45 0 -45 0 0 184 c0 179 1
185 22 200 19 13 25 14 43 2 19 -13 20 -25 23 -200z"/>
<path d="M2544 3520 c-48 -19 -54 -44 -54 -208 l0 -154 -131 -215 c-158 -259
-160 -263 -133 -300 23 -30 70 -41 101 -24 11 5 68 91 128 190 84 138 112 178
121 168 6 -6 53 -82 104 -167 51 -85 102 -165 113 -177 26 -29 79 -31 107 -3
39 39 27 67 -120 309 l-140 229 0 159 c0 140 -2 162 -17 175 -25 22 -54 28
-79 18z"/>
<path d="M3681 2594 c-19 -25 -21 -40 -21 -194 0 -154 2 -169 21 -194 27 -34
77 -36 107 -3 21 22 22 32 22 198 0 163 -1 177 -20 197 -30 32 -82 30 -109 -4z"/>
<path d="M1889 2521 c-35 -36 -37 -61 -5 -98 l24 -28 641 -3 c703 -3 703 -3
717 54 9 37 -6 76 -36 91 -19 10 -172 13 -668 13 l-644 0 -29 -29z"/>
<path d="M1245 1046 c-22 -9 -56 -33 -76 -54 -53 -56 -61 -107 -57 -367 l3
-217 29 -25 c28 -24 31 -24 178 -21 205 4 190 -21 186 302 -3 232 -5 254 -24
291 -41 78 -155 121 -239 91z m94 -153 c21 -17 22 -24 19 -198 l-3 -180 -42
-3 -43 -3 0 190 c0 170 2 191 18 200 23 14 27 14 51 -6z"/>
</g>
</svg>
