<?xml version="1.0" standalone="no"?>
<!DOCTYPE svg PUBLIC "-//W3C//DTD SVG 20010904//EN"
 "http://www.w3.org/TR/2001/REC-SVG-20010904/DTD/svg10.dtd">
<svg version="1.0" xmlns="http://www.w3.org/2000/svg"
 width="583.000000pt" height="584.000000pt" viewBox="0 0 583.000000 584.000000"
 preserveAspectRatio="xMidYMid meet">

<g transform="translate(0.000000,584.000000) scale(0.100000,-0.100000)"
fill="#000000" stroke="none">
<path d="M2642 4526 c-150 -591 -277 -1090 -283 -1109 l-10 -36 -227 -3 c-226
-3 -227 -3 -284 -31 -114 -56 -175 -161 -166 -287 9 -116 66 -197 176 -248 46
-21 74 -25 201 -30 l147 -7 -317 -1249 c-328 -1290 -324 -1272 -285 -1298 14
-10 2638 -10 2652 0 39 26 43 8 -285 1298 l-318 1249 137 6 c167 8 221 24 290
86 66 59 92 111 98 194 7 97 -17 159 -87 230 -84 83 -108 89 -372 89 l-218 0
-10 38 c-6 20 -134 520 -283 1109 -150 590 -275 1073 -278 1073 -3 0 -128
-483 -278 -1074z m362 -163 c43 -500 80 -925 83 -945 l6 -38 -173 0 -173 0 6
38 c3 20 40 445 83 945 43 499 81 907 84 907 3 0 41 -408 84 -907z m-244 -173
c-38 -442 -71 -805 -73 -807 -3 -2 -65 -2 -139 -1 l-135 3 206 807 c113 444
207 806 208 804 2 -2 -28 -364 -67 -806z m463 -5 l204 -800 -135 -3 c-74 -1
-137 -1 -139 2 -4 3 -144 1588 -142 1610 1 20 9 -9 212 -809z m-1175 -1099 c3
-172 -1 -192 -35 -179 -10 4 -13 42 -13 172 0 92 3 171 7 175 4 4 14 5 23 4
13 -3 15 -29 18 -172z m210 -2 c2 -145 0 -173 -12 -177 -9 -4 -22 1 -31 9 -12
12 -15 44 -15 164 0 82 3 156 6 165 4 9 15 15 28 13 20 -3 21 -8 24 -174z
m210 2 c3 -177 -1 -196 -40 -175 -16 9 -18 26 -18 164 0 84 3 161 6 170 4 9
15 15 28 13 20 -3 21 -8 24 -172z m956 158 c3 -9 6 -85 6 -169 0 -137 -2 -155
-17 -163 -40 -20 -43 -7 -43 167 0 92 3 171 7 174 12 13 41 7 47 -9z m204 4
c8 -8 12 -59 12 -164 0 -124 -3 -155 -15 -168 -9 -8 -22 -13 -30 -10 -12 5
-15 35 -15 173 0 92 3 171 7 174 10 11 28 8 41 -5z m210 -164 c2 -145 0 -173
-12 -177 -9 -4 -22 1 -31 9 -12 12 -15 44 -15 160 0 149 8 188 38 182 15 -3
17 -23 20 -174z m-1068 101 c119 -62 40 -250 -90 -215 -70 19 -107 97 -76 162
30 62 103 86 166 53z m421 -2 c38 -23 63 -75 55 -118 -25 -131 -211 -132 -233
-1 -16 99 91 170 178 119z m-531 -409 c0 -3 38 -464 85 -1024 47 -560 85
-1026 85 -1034 0 -14 -16 -16 -108 -16 -71 0 -112 -4 -120 -12 -9 -9 -12 -69
-12 -210 l0 -198 -480 0 c-377 0 -480 3 -480 13 0 9 578 2292 620 2447 l11 40
199 0 c110 0 200 -3 200 -6z m460 1 c0 -2 -38 -460 -85 -1017 -47 -557 -85
-1023 -85 -1035 0 -19 -6 -23 -30 -23 -21 0 -30 5 -30 16 0 8 -38 474 -85
1034 -47 560 -85 1021 -85 1024 0 3 90 6 200 6 110 0 200 -2 200 -5z m464 -12
c15 -49 626 -2461 626 -2471 0 -9 -117 -12 -480 -12 l-480 0 0 198 c0 141 -3
201 -12 210 -8 8 -49 12 -120 12 -92 0 -108 2 -108 16 0 8 38 474 85 1034 47
560 85 1021 85 1024 0 3 90 6 199 6 181 0 200 -2 205 -17z m-394 -2303 l0
-180 -270 0 -270 0 0 180 0 180 270 0 270 0 0 -180z"/>
<path d="M2662 4148 c-14 -18 -73 -315 -66 -333 9 -23 43 -18 53 8 4 12 20 86
36 164 22 116 25 146 15 158 -15 18 -24 19 -38 3z"/>
<path d="M3140 4150 c-12 -8 -10 -29 14 -157 16 -81 33 -158 37 -170 10 -26
44 -31 53 -8 7 18 -52 315 -66 333 -12 14 -18 15 -38 2z"/>
<path d="M2666 3118 c-23 -32 -20 -54 11 -77 40 -33 93 -7 93 44 0 51 -75 74
-104 33z"/>
<path d="M3087 3122 c-49 -54 19 -127 76 -81 31 23 34 45 11 77 -19 27 -64 29
-87 4z"/>
</g>
</svg>
