<?xml version="1.0" standalone="no"?>
<!DOCTYPE svg PUBLIC "-//W3C//DTD SVG 20010904//EN"
 "http://www.w3.org/TR/2001/REC-SVG-20010904/DTD/svg10.dtd">
<svg version="1.0" xmlns="http://www.w3.org/2000/svg"
 width="512.000000pt" height="512.000000pt" viewBox="0 0 512.000000 512.000000"
 preserveAspectRatio="xMidYMid meet">

<g transform="translate(0.000000,512.000000) scale(0.100000,-0.100000)"
 stroke="none">
<path d="M1831 5109 c-376 -42 -670 -172 -903 -397 -154 -149 -161 -163 -194
-377 -29 -192 -28 -235 7 -279 25 -32 501 -373 546 -393 55 -22 96 -16 189 31
49 25 89 44 90 43 1 -1 -4 -42 -13 -92 -16 -99 -10 -141 27 -188 11 -14 166
-129 345 -257 179 -128 328 -236 331 -241 3 -5 -196 -292 -443 -638 l-448
-629 -60 -13 c-278 -58 -602 -187 -781 -311 -107 -73 -214 -189 -259 -281 -32
-65 -38 -88 -42 -164 -4 -73 -1 -99 16 -152 60 -176 219 -326 486 -459 721
-359 2040 -416 2934 -127 401 130 677 315 778 523 37 75 38 80 38 188 0 108
-1 112 -39 189 -146 295 -620 532 -1291 644 -254 43 -416 55 -757 55 -214 1
-324 4 -320 11 3 6 143 202 310 437 l305 427 66 -47 c36 -26 185 -132 331
-236 146 -104 283 -196 305 -204 53 -18 94 -9 183 39 41 22 76 38 79 35 3 -3
0 -34 -6 -69 -22 -126 -12 -175 46 -228 15 -14 138 -104 273 -200 l244 -174
61 0 c56 0 70 5 215 83 178 94 203 118 272 248 184 349 204 770 57 1217 -81
249 -281 607 -466 837 -90 112 -248 275 -345 357 -43 36 -78 69 -78 72 0 3 38
60 85 126 116 162 135 232 90 341 -47 115 -192 181 -310 140 -72 -24 -103 -53
-195 -184 -47 -67 -88 -121 -91 -122 -3 0 -51 26 -105 57 -295 170 -681 301
-1024 348 -143 19 -427 27 -539 14z m524 -183 c196 -29 412 -85 569 -149 l58
-24 -78 -7 c-429 -39 -873 -290 -1201 -680 -31 -37 -45 -47 -55 -40 -7 6 -160
115 -340 243 -181 128 -330 236 -333 241 -10 15 173 176 265 232 162 100 383
173 600 197 109 13 387 5 515 -13z m1568 -115 c39 -38 27 -79 -58 -199 -44
-62 -83 -112 -87 -112 -4 0 -27 15 -51 33 -23 17 -52 39 -64 47 -22 15 -21 16
57 125 44 60 90 115 102 122 28 16 77 9 101 -16z m-768 -236 c196 -14 399
-105 550 -246 93 -87 158 -176 216 -294 195 -401 145 -952 -130 -1424 -30 -51
-47 -71 -58 -67 -13 5 -271 189 -1636 1162 l-298 212 32 39 c302 358 700 586
1089 622 47 4 103 6 125 5 22 -2 72 -6 110 -9z m-1865 -503 c118 -84 216 -156
217 -160 2 -4 -33 -26 -77 -50 l-79 -43 -228 162 c-125 88 -232 164 -236 168
-7 7 4 104 18 169 6 26 -20 43 385 -246z m2989 -312 c293 -389 452 -810 454
-1200 0 -149 -12 -242 -49 -370 -33 -112 -101 -253 -117 -243 -17 10 -671 474
-679 482 -3 3 14 40 39 81 204 339 307 752 275 1104 -11 114 -27 210 -49 281
l-6 20 23 -20 c12 -11 61 -72 109 -135z m-1569 -700 c481 -342 879 -626 883
-630 11 -10 -143 -92 -163 -87 -13 4 -1696 1199 -1711 1216 -3 3 1 48 9 99
l14 92 47 -34 c25 -18 440 -313 921 -656z m-232 -255 c40 -29 60 -50 56 -58
-31 -52 -1322 -1857 -1341 -1874 -50 -47 -129 -20 -139 47 -5 33 26 80 646
950 727 1020 698 980 709 980 4 0 35 -20 69 -45z m1709 -798 c133 -95 242
-174 242 -177 0 -3 -36 -24 -80 -48 l-80 -43 -235 167 c-129 91 -234 170 -234
175 0 17 21 153 25 167 3 9 23 0 62 -28 32 -23 167 -119 300 -213z m-1352
-407 c502 -55 906 -167 1174 -326 115 -67 231 -178 271 -256 59 -118 36 -227
-73 -344 -359 -387 -1463 -594 -2482 -464 -566 72 -1030 246 -1227 459 -80 86
-103 138 -103 231 1 93 22 138 109 228 75 79 161 136 308 207 104 50 385 152
394 143 2 -2 -62 -95 -141 -206 -165 -231 -174 -246 -182 -311 -17 -150 100
-281 251 -281 71 0 146 31 187 76 15 16 156 211 314 434 159 223 290 407 292
409 17 21 720 22 908 1z"/>
<path d="M3145 1255 c-38 -37 -37 -88 1 -122 80 -73 186 46 109 122 -15 16
-36 25 -55 25 -19 0 -40 -9 -55 -25z"/>
<path d="M3399 1081 c-31 -31 -36 -59 -17 -94 17 -33 39 -46 76 -47 87 -1 113
117 35 158 -35 19 -63 14 -94 -17z"/>
<path d="M2130 1011 c-51 -16 -88 -41 -132 -90 -112 -124 -100 -307 27 -419
118 -104 308 -94 412 21 83 92 102 222 50 330 -34 67 -101 130 -164 151 -48
17 -149 20 -193 7z m161 -184 c71 -48 71 -156 0 -204 -62 -42 -136 -26 -178
36 -77 114 63 245 178 168z"/>
<path d="M2973 998 c-29 -32 -34 -53 -21 -88 15 -43 59 -65 104 -50 40 13 54
35 54 83 0 69 -91 105 -137 55z"/>
</g>
</svg>
