<?xml version="1.0" standalone="no"?>
<!DOCTYPE svg PUBLIC "-//W3C//DTD SVG 20010904//EN"
 "http://www.w3.org/TR/2001/REC-SVG-20010904/DTD/svg10.dtd">
<svg version="1.0" xmlns="http://www.w3.org/2000/svg"
 width="512.000000pt" height="512.000000pt" viewBox="0 0 512.000000 512.000000"
 preserveAspectRatio="xMidYMid meet">

<g transform="translate(0.000000,512.000000) scale(0.100000,-0.100000)"
 stroke="none">
<path d="M2350 5109 c-946 -105 -1691 -828 -1814 -1760 -14 -106 -16 -220 -14
-794 l3 -670 145 -98 145 -97 22 -158 c61 -431 223 -767 502 -1042 255 -251
545 -397 931 -467 117 -21 436 -24 555 -5 367 60 687 213 935 449 288 273 461
626 523 1064 l22 157 125 82 c69 45 135 92 148 103 l22 20 0 668 c0 744 -4
801 -65 1034 -212 812 -903 1412 -1735 1509 -143 17 -326 19 -450 5z m398
-150 c403 -43 766 -203 1069 -468 275 -242 488 -591 577 -948 53 -210 56 -261
56 -944 l0 -634 -73 -47 -72 -48 -5 618 c-6 590 -7 622 -28 725 -33 157 -74
275 -146 422 -71 145 -136 243 -241 365 -219 256 -551 464 -885 554 -314 84
-663 79 -956 -15 -171 -54 -404 -170 -446 -220 -40 -47 -8 -119 52 -119 17 0
58 17 97 42 456 280 1037 296 1535 41 145 -74 261 -158 390 -282 239 -230 377
-479 450 -811 20 -91 22 -128 25 -820 l3 -725 -48 -38 c-66 -53 -213 -124
-306 -147 -95 -24 -258 -27 -357 -6 -97 21 -210 71 -292 130 l-71 51 -41 179
c-43 190 -56 216 -112 216 -26 0 -73 -40 -73 -63 0 -14 46 -224 56 -259 5 -17
-16 -18 -346 -18 -330 0 -351 1 -346 18 3 9 75 330 161 712 86 382 159 698
161 702 7 10 41 10 48 0 2 -4 43 -181 91 -392 47 -212 90 -397 96 -411 27 -70
139 -51 139 23 0 16 -12 81 -26 144 -14 64 -24 118 -21 120 2 3 29 13 60 24
78 27 206 27 288 0 67 -23 90 -36 162 -92 55 -43 83 -47 115 -18 52 48 37 93
-51 159 -109 83 -225 121 -367 121 -84 0 -124 -6 -226 -36 -20 -5 -23 0 -33
47 -7 30 -14 64 -17 76 -5 20 1 26 49 48 173 76 372 82 557 16 96 -34 169 -77
255 -152 71 -61 113 -77 161 -59 65 25 104 84 104 157 0 39 -9 64 -46 129
-122 217 -299 353 -545 421 -90 25 -338 25 -429 0 -83 -23 -196 -76 -269 -127
-31 -22 -65 -40 -74 -40 -9 0 -38 15 -64 34 -65 46 -154 89 -238 116 -99 31
-290 39 -406 15 -171 -34 -328 -115 -451 -233 -101 -96 -198 -262 -198 -338 0
-87 81 -155 164 -140 21 4 61 30 107 71 212 187 497 240 765 143 46 -16 86
-33 89 -38 3 -4 -2 -40 -11 -80 -15 -65 -18 -71 -38 -66 -101 29 -142 36 -221
36 -142 0 -265 -40 -372 -121 -88 -66 -103 -111 -51 -159 32 -30 60 -25 118
21 29 22 82 55 118 72 57 27 81 32 164 35 92 4 173 -10 217 -38 10 -6 -10
-111 -94 -481 -58 -261 -112 -480 -118 -488 -26 -31 -153 -111 -220 -140 -262
-108 -560 -71 -790 100 l-58 43 4 721 c3 685 5 725 25 817 60 278 173 508 355
727 51 61 70 92 70 112 0 42 -29 69 -74 69 -33 0 -44 -7 -94 -62 -185 -204
-325 -476 -384 -752 -49 -226 -55 -325 -53 -885 l2 -524 -27 18 c-16 10 -49
32 -75 49 l-48 31 0 634 c0 683 3 734 56 944 89 359 301 706 578 948 398 349
936 524 1444 468z m532 -1654 c36 -9 108 -37 160 -62 79 -39 109 -61 180 -132
54 -55 98 -109 119 -149 l33 -64 -63 51 c-181 146 -451 222 -679 191 -47 -6
-128 -26 -181 -44 l-97 -33 -10 51 c-6 28 -13 59 -17 68 -11 28 101 88 230
123 68 19 245 18 325 0z m-1097 -12 c74 -18 212 -82 211 -99 0 -5 -6 -37 -14
-72 -11 -50 -17 -61 -30 -56 -68 31 -193 65 -274 75 -218 27 -471 -40 -643
-171 -29 -22 -53 -36 -53 -31 0 23 112 161 165 204 76 61 203 124 297 148 96
23 248 24 341 2z m831 -1797 c101 -82 226 -144 368 -183 48 -14 102 -18 228
-18 192 0 266 16 417 90 48 24 90 41 92 39 8 -8 -50 -204 -89 -300 -155 -380
-471 -698 -854 -860 -417 -177 -905 -163 -1312 37 -413 202 -723 577 -840
1017 -15 56 -25 104 -23 106 2 2 45 -16 94 -40 126 -61 224 -85 376 -91 143
-6 236 8 373 58 82 30 244 126 280 167 19 22 21 22 428 22 l408 0 54 -44z"/>
<path d="M2469 4085 c-64 -20 -131 -83 -159 -147 -29 -65 -31 -164 -6 -221 92
-210 392 -226 500 -27 98 181 -19 396 -222 406 -41 2 -85 -2 -113 -11z m151
-148 c13 -7 35 -28 48 -47 35 -52 26 -113 -22 -157 -30 -28 -43 -33 -85 -33
-60 0 -105 33 -120 88 -30 108 80 199 179 149z"/>
<path d="M1500 2301 c-96 -22 -150 -63 -191 -147 -28 -57 -31 -70 -27 -136 4
-84 24 -130 76 -183 137 -139 374 -93 452 87 28 66 25 170 -8 234 -53 104
-190 170 -302 145z m105 -155 c50 -21 77 -69 72 -129 -7 -82 -79 -132 -158
-108 -112 34 -123 190 -15 237 40 17 59 17 101 0z"/>
<path d="M3515 2301 c-137 -36 -224 -157 -213 -295 6 -76 33 -130 90 -183 55
-50 104 -67 190 -67 188 1 311 171 258 359 -16 59 -95 147 -150 169 -49 19
-134 28 -175 17z m132 -167 c53 -34 72 -118 39 -169 -21 -32 -74 -65 -104 -65
-40 0 -91 28 -112 62 -71 116 62 245 177 172z"/>
<path d="M2300 1278 c-56 -27 -170 -139 -199 -195 -42 -83 -20 -155 72 -240
102 -93 268 -163 387 -163 124 0 281 65 381 157 110 102 125 170 61 269 -67
103 -191 194 -264 194 -19 0 -66 -16 -106 -35 l-72 -34 -72 34 c-84 41 -126
43 -188 13z m181 -179 c36 -22 71 -39 79 -39 7 0 48 21 91 46 54 31 85 44 99
39 25 -8 140 -122 140 -140 0 -23 -90 -94 -169 -133 -69 -34 -82 -37 -160 -37
-75 0 -94 4 -151 31 -68 32 -167 105 -177 129 -7 19 50 90 101 126 46 34 53
33 147 -22z"/>
</g>
</svg>
