<?xml version="1.0" standalone="no"?>
<!DOCTYPE svg PUBLIC "-//W3C//DTD SVG 20010904//EN"
 "http://www.w3.org/TR/2001/REC-SVG-20010904/DTD/svg10.dtd">
<svg version="1.0" xmlns="http://www.w3.org/2000/svg"
 width="852.000000pt" height="851.000000pt" viewBox="0 0 852.000000 851.000000"
 preserveAspectRatio="xMidYMid meet">

<g transform="translate(0.000000,851.000000) scale(0.100000,-0.100000)"
 stroke="none">
<path d="M2998 7183 c-12 -14 -292 -486 -363 -612 -17 -30 -36 -45 -143 -112
-136 -85 -152 -94 -332 -184 -200 -99 -234 -115 -251 -115 -8 0 -23 -7 -33
-15 -11 -8 -26 -15 -34 -15 -8 0 -28 -7 -45 -15 -63 -29 -273 -94 -422 -130
-164 -40 -435 -81 -615 -93 l-105 -7 -3 -127 c-3 -144 -5 -140 83 -152 28 -4
79 -13 115 -21 36 -8 119 -24 185 -35 66 -12 156 -28 200 -36 116 -20 365 -57
635 -94 54 -8 305 -36 348 -40 1 0 2 -241 2 -535 l0 -535 -785 0 -785 0 0
-1440 0 -1440 1395 0 1395 0 0 380 c0 402 5 456 51 595 20 59 91 198 113 221
6 6 18 22 26 34 31 45 108 119 202 190 76 58 221 114 348 135 118 19 171 19
284 0 335 -55 591 -278 704 -613 l26 -77 4 -432 4 -433 1394 0 1394 0 0 1440
0 1440 -785 0 -785 0 0 525 c0 289 2 525 4 525 2 0 28 5 57 10 30 6 97 15 149
20 88 10 198 25 360 51 36 6 106 17 155 25 186 28 274 43 311 52 22 6 62 13
89 17 28 3 79 12 115 20 94 19 206 42 273 55 l57 11 0 135 0 134 -65 0 c-117
0 -448 46 -615 86 -349 83 -624 187 -940 356 -52 27 -114 63 -138 79 -24 16
-45 29 -48 29 -3 0 -38 23 -79 51 -63 43 -82 63 -117 122 -23 40 -45 74 -48
77 -3 3 -11 16 -18 30 -7 14 -21 40 -32 58 -11 17 -29 47 -40 65 -11 17 -24
42 -30 55 -6 13 -24 43 -40 67 -17 24 -30 47 -30 51 0 4 -6 15 -14 23 -7 9
-28 43 -45 76 -18 33 -40 66 -49 73 -12 9 -292 12 -1322 12 -1232 0 -1308 -1
-1322 -17z m2500 -263 c10 -11 25 -33 33 -48 7 -15 28 -51 46 -80 18 -29 33
-55 33 -58 0 -3 13 -25 30 -49 16 -24 34 -54 40 -67 6 -13 21 -41 35 -63 14
-22 30 -49 35 -60 47 -94 90 -142 181 -203 128 -86 240 -153 386 -228 129 -67
378 -178 426 -189 15 -4 30 -11 33 -16 3 -5 14 -9 24 -9 11 0 34 -6 52 -14 34
-15 116 -41 223 -71 106 -30 106 -31 25 -44 -41 -7 -109 -19 -150 -26 -41 -7
-100 -16 -130 -20 -30 -3 -98 -12 -150 -20 -153 -23 -317 -44 -440 -55 -63 -6
-124 -13 -135 -16 -25 -6 -324 -32 -515 -44 -80 -6 -210 -15 -290 -20 -447
-32 -1511 -32 -1940 0 -74 5 -205 14 -290 20 -224 15 -459 37 -740 70 -213 25
-327 40 -348 45 -13 3 -74 12 -135 20 -158 21 -348 52 -353 58 -3 3 28 14 68
26 178 52 407 132 503 176 17 8 53 23 80 35 56 24 237 115 305 153 25 14 56
32 70 40 48 26 74 42 122 75 26 17 52 32 58 32 5 0 10 3 10 8 0 4 16 16 35 26
65 35 91 71 245 336 85 145 162 272 172 282 17 17 77 18 1173 18 1145 0 1154
0 1173 -20z m-2823 -1600 c55 -5 153 -14 218 -22 l117 -12 0 -488 0 -488 -260
0 -260 0 0 515 0 515 43 -5 c23 -3 87 -10 142 -15z m3485 -500 l0 -510 -260 0
-260 0 0 494 0 494 88 8 c91 7 304 20 385 22 l47 2 0 -510z m-2510 440 c454
-17 1164 -10 1603 16 l117 7 0 -486 0 -487 -1050 0 -1050 0 0 478 c0 263 3
482 8 486 4 5 34 5 67 2 33 -4 170 -11 305 -16z m-2492 -1342 l3 -128 -126 0
-125 0 0 123 c0 68 3 127 7 131 4 3 59 5 122 4 l116 -3 3 -127z m1012 2 l0
-130 -375 0 -375 0 0 123 c0 68 3 127 7 130 3 4 172 7 375 7 l368 0 0 -130z
m1008 -2 l3 -128 -376 0 -375 0 0 123 c0 68 3 127 7 130 4 4 171 6 372 5 l366
-3 3 -127z m1010 0 l3 -128 -376 0 -375 0 0 130 0 130 373 -2 372 -3 3 -127z
m1012 2 l0 -130 -375 0 -375 0 0 123 c0 68 3 127 7 130 3 4 172 7 375 7 l368
0 0 -130z m1010 0 l0 -130 -370 0 -370 0 0 130 0 130 370 0 370 0 0 -130z
m1018 -2 l3 -128 -376 0 -375 0 0 130 0 130 373 -2 372 -3 3 -127z m502 2 l0
-130 -120 0 -120 0 0 123 c0 68 3 127 7 130 3 4 57 7 120 7 l113 0 0 -130z
m-6072 -527 l3 -133 -376 0 -375 0 0 128 c0 71 3 132 7 135 4 4 171 6 372 5
l366 -3 3 -132z m1012 2 l0 -135 -370 0 -370 0 0 135 0 135 370 0 370 0 0
-135z m1010 0 l0 -135 -370 0 -370 0 0 135 0 135 370 0 370 0 0 -135z m1018
-2 l3 -133 -376 0 -375 0 0 128 c0 71 3 132 7 135 4 4 171 6 372 5 l366 -3 3
-132z m1010 0 l3 -133 -376 0 -375 0 0 128 c0 71 3 132 7 135 4 4 171 6 372 5
l366 -3 3 -132z m1010 0 l3 -133 -376 0 -375 0 0 128 c0 71 3 132 7 135 4 4
171 6 372 5 l366 -3 3 -132z m1010 0 l3 -133 -376 0 -375 0 0 128 c0 71 3 132
7 135 4 4 171 6 372 5 l366 -3 3 -132z m-6570 -525 l3 -128 -126 0 -125 0 0
123 c0 68 3 127 7 131 4 3 59 5 122 4 l116 -3 3 -127z m1012 2 l0 -130 -375 0
-375 0 0 123 c0 68 3 127 7 130 3 4 172 7 375 7 l368 0 0 -130z m1008 -2 l3
-128 -376 0 -375 0 0 123 c0 68 3 127 7 130 4 4 171 6 372 5 l366 -3 3 -127z
m402 127 c0 -7 -128 -135 -135 -135 -3 0 -5 32 -5 70 l0 70 70 0 c39 0 70 -2
70 -5z m1620 -67 l0 -72 -65 64 c-36 35 -65 68 -65 72 0 4 29 8 65 8 l65 0 0
-72z m1010 -58 l0 -130 -370 0 -370 0 0 130 0 130 370 0 370 0 0 -130z m1015
0 l0 -125 -372 -3 -373 -2 0 130 0 130 373 -2 372 -3 0 -125z m505 0 l0 -130
-120 0 -120 0 0 123 c0 68 3 127 7 130 3 4 57 7 120 7 l113 0 0 -130z m-6072
-527 l3 -133 -376 0 -375 0 0 128 c0 71 3 132 7 135 4 4 171 6 372 5 l366 -3
3 -132z m1012 2 l0 -135 -370 0 -370 0 0 135 0 135 370 0 370 0 0 -135z m560
118 c0 -10 -9 -51 -20 -92 -11 -41 -20 -94 -20 -118 l0 -43 -125 0 -125 0 0
135 0 135 145 0 c132 0 145 -2 145 -17z m2478 -120 l3 -133 -126 0 c-123 0
-125 0 -125 23 0 30 -35 201 -44 215 -17 28 8 32 147 30 l142 -3 3 -132z
m1010 0 l3 -133 -376 0 -375 0 0 128 c0 71 3 132 7 135 4 4 171 6 372 5 l366
-3 3 -132z m1010 0 l3 -133 -376 0 -375 0 0 128 c0 71 3 132 7 135 4 4 171 6
372 5 l366 -3 3 -132z m-6570 -525 l3 -128 -126 0 -125 0 0 123 c0 68 3 127 7
131 4 3 59 5 122 4 l116 -3 3 -127z m1012 2 l0 -130 -375 0 -375 0 0 123 c0
68 3 127 7 130 3 4 172 7 375 7 l368 0 0 -130z m1008 -2 l3 -128 -376 0 -375
0 0 123 c0 68 3 127 7 130 4 4 171 6 372 5 l366 -3 3 -127z m3032 2 l0 -130
-370 0 -370 0 0 130 0 130 370 0 370 0 0 -130z m1015 0 l0 -125 -372 -3 -373
-2 0 130 0 130 373 -2 372 -3 0 -125z m505 0 l0 -130 -120 0 -120 0 0 123 c0
68 3 127 7 130 3 4 57 7 120 7 l113 0 0 -130z"/>
</g>
</svg>
