<?xml version="1.0" standalone="no"?>
<!DOCTYPE svg PUBLIC "-//W3C//DTD SVG 20010904//EN"
 "http://www.w3.org/TR/2001/REC-SVG-20010904/DTD/svg10.dtd">
<svg version="1.0" xmlns="http://www.w3.org/2000/svg"
 width="512.000000pt" height="512.000000pt" viewBox="0 0 512.000000 512.000000"
 preserveAspectRatio="xMidYMid meet">

<g transform="translate(0.000000,512.000000) scale(0.100000,-0.100000)"
 stroke="none">
<path d="M3670 5106 c-25 -7 -101 -36 -168 -66 -181 -78 -258 -155 -297 -295
l-17 -60 -91 0 c-131 0 -193 -31 -327 -161 -146 -142 -187 -210 -199 -334 l-6
-65 -60 -5 -60 -5 -129 124 c-159 152 -271 236 -401 300 -182 90 -332 129
-535 138 -388 17 -752 -130 -1018 -411 -164 -174 -268 -368 -330 -616 l-26
-105 -3 -1730 c-3 -1300 -1 -1737 8 -1758 26 -61 -164 -57 2549 -57 2700 0
2521 -4 2548 55 9 20 12 515 12 2108 0 2051 0 2082 -20 2114 -45 74 -274 233
-427 298 -144 60 -349 105 -478 105 l-40 0 3 74 c4 64 0 83 -21 130 -80 174
-287 272 -467 222z m178 -201 c95 -40 143 -143 90 -192 -32 -29 -427 -193
-464 -193 -91 0 -114 159 -37 251 29 34 69 56 202 110 104 42 152 47 209 24z
m-665 -429 c49 -20 87 -64 87 -99 0 -26 -25 -56 -177 -209 -175 -176 -179
-179 -217 -176 -76 6 -122 104 -101 215 5 30 27 59 108 141 56 57 118 112 137
122 42 23 118 25 163 6z m-1672 -12 c172 -30 342 -102 479 -204 36 -27 110
-94 164 -149 l100 -100 -74 -78 c-41 -43 -78 -82 -82 -87 -5 -6 -54 35 -115
95 -161 158 -270 224 -445 271 -116 31 -317 31 -433 -1 -372 -100 -630 -411
-660 -793 -18 -225 69 -477 225 -651 204 -227 528 -332 832 -269 101 21 254
86 325 138 21 15 391 379 823 809 813 809 844 837 1007 919 394 197 909 134
1225 -152 l38 -34 0 -171 0 -171 -112 111 c-159 155 -278 226 -455 270 -93 23
-303 23 -396 0 -92 -23 -203 -70 -279 -119 -44 -28 -298 -274 -848 -822 -468
-467 -812 -802 -851 -829 -142 -100 -324 -174 -487 -197 -129 -19 -334 -8
-457 24 -119 31 -293 115 -386 185 -210 160 -370 412 -426 671 -22 102 -24
342 -5 435 55 254 188 486 371 642 166 142 385 240 596 266 79 10 241 5 326
-9z m14 -458 c123 -39 195 -87 341 -228 l131 -128 5 -84 c8 -122 64 -236 144
-290 l33 -22 -217 -216 c-133 -133 -242 -232 -281 -257 -190 -121 -455 -134
-659 -31 -184 94 -306 242 -359 440 -23 87 -23 252 1 340 69 252 270 442 526
496 94 20 236 11 335 -20z m2793 13 l52 -12 0 -1634 0 -1633 -170 0 -170 0 0
1644 0 1645 33 4 c51 8 197 -1 255 -14z m-488 -1674 l0 -1605 -175 0 -175 0 0
1453 0 1454 128 125 c112 110 191 176 215 177 4 1 7 -721 7 -1604z m-1213
1564 c49 -18 83 -59 83 -99 0 -33 -13 -49 -178 -213 -198 -197 -212 -204 -267
-149 -54 53 -70 136 -40 210 19 44 197 228 240 248 36 16 123 18 162 3z m2135
-186 l168 -168 0 -1407 0 -1408 -175 0 -175 0 0 1575 c0 866 3 1575 7 1575 4
0 83 -75 175 -167z m-1472 -1633 l0 -1350 -175 0 -175 0 0 1177 0 1178 172
172 c95 95 174 173 175 173 2 0 3 -607 3 -1350z m-550 -275 l0 -1075 -170 0
-170 0 0 907 0 908 167 167 c92 93 169 168 170 168 2 0 3 -484 3 -1075z
m-2343 612 c43 -44 97 -93 121 -110 l42 -30 0 -774 0 -773 -175 0 -175 0 0
956 0 955 55 -73 c30 -40 90 -108 132 -151z m1803 -882 l0 -805 -175 0 -175 0
0 700 0 699 82 42 c83 41 217 128 239 155 6 8 15 14 20 14 5 0 9 -350 9 -805z
m-1314 570 c50 -19 118 -39 152 -46 l62 -13 0 -658 0 -658 -170 0 -170 0 0
711 c0 673 1 711 18 704 9 -4 58 -22 108 -40z m764 -710 l0 -665 -175 0 -175
0 2 648 3 647 115 7 c63 3 133 11 155 16 83 21 75 93 75 -653z m3280 -1035 l0
-170 -2360 0 -2360 0 0 170 0 170 2360 0 2360 0 0 -170z"/>
</g>
</svg>
