<?xml version="1.0" standalone="no"?>
<!DOCTYPE svg PUBLIC "-//W3C//DTD SVG 20010904//EN"
 "http://www.w3.org/TR/2001/REC-SVG-20010904/DTD/svg10.dtd">
<svg version="1.0" xmlns="http://www.w3.org/2000/svg"
 width="512.000000pt" height="512.000000pt" viewBox="0 0 512.000000 512.000000"
 preserveAspectRatio="xMidYMid meet">

<g transform="translate(0.000000,512.000000) scale(0.100000,-0.100000)"
 stroke="none">
<path d="M4010 5035 l0 -85 85 0 85 0 0 -85 0 -85 -255 0 -255 0 0 -85 0 -85
50 0 c28 0 50 -2 50 -4 0 -2 11 -58 25 -126 14 -68 25 -124 25 -126 0 -2 -78
-4 -174 -4 -160 0 -175 -2 -200 -21 -20 -16 -26 -29 -26 -60 0 -66 168 -721
191 -744 17 -18 37 -21 167 -25 l147 -5 0 -1150 0 -1150 -1450 0 -1450 0 0 85
0 85 83 3 82 3 0 84 0 85 -510 0 -510 0 0 -85 0 -85 85 0 85 0 0 -90 0 -90
-139 0 c-77 0 -147 -3 -156 -6 -44 -17 -45 -34 -45 -594 l0 -532 29 -29 29
-29 2502 0 2502 0 29 29 29 29 0 532 c0 560 -1 577 -45 594 -9 3 -118 6 -241
6 l-224 0 0 1155 0 1155 139 0 c131 0 142 1 166 23 23 19 37 64 115 377 49
195 90 363 90 372 0 9 -12 30 -26 47 l-26 31 -180 0 c-166 0 -179 1 -174 18 3
9 15 68 27 130 l22 112 48 0 49 0 0 85 0 85 -255 0 -255 0 0 85 0 85 85 0 85
0 0 85 0 85 -255 0 -255 0 0 -85z m576 -442 c-3 -10 -15 -69 -27 -131 l-22
-112 -271 2 -271 3 -22 105 c-12 58 -22 115 -23 128 l0 22 321 0 c300 0 320
-1 315 -17z m334 -425 c0 -7 -9 -44 -18 -83 l-18 -70 -97 -3 -97 -3 0 -84 0
-85 76 0 c67 0 75 -2 70 -17 -3 -10 -13 -48 -22 -85 l-16 -68 -532 0 -532 0
-21 85 -20 85 73 0 74 0 0 85 0 85 -95 0 -94 0 -11 43 c-6 23 -15 58 -21 77
-5 19 -9 38 -9 43 0 4 295 7 655 7 517 0 655 -3 655 -12z m-482 -1820 l-3
-1153 -167 -3 -168 -2 0 1155 0 1155 170 0 170 0 -2 -1152z m-3588 -1068 l0
-90 -167 2 -168 3 -3 74 c-2 41 -1 80 2 88 4 10 42 13 171 13 l165 0 0 -90z
m4100 -685 l0 -425 -170 0 -170 0 0 299 c0 303 -4 342 -38 367 -14 11 -345 13
-1758 14 l-1741 0 -24 -26 -24 -26 -3 -314 -3 -314 -425 0 -424 0 0 425 0 425
2390 0 2390 0 0 -425z m-3240 0 l0 -85 -257 2 -258 3 -3 83 -3 82 261 0 260 0
0 -85z m680 0 l0 -85 -255 0 -255 0 0 85 0 85 255 0 255 0 0 -85z m680 0 l0
-85 -255 0 -255 0 0 85 0 85 255 0 255 0 0 -85z m680 0 l0 -85 -255 0 -255 0
0 85 0 85 255 0 255 0 0 -85z m690 0 l0 -85 -255 0 -255 0 0 85 0 85 255 0
255 0 0 -85z m-2730 -340 l0 -85 -257 2 -258 3 -3 83 -3 82 261 0 260 0 0 -85z
m680 0 l0 -85 -255 0 -255 0 0 85 0 85 255 0 255 0 0 -85z m680 0 l0 -85 -255
0 -255 0 0 85 0 85 255 0 255 0 0 -85z m680 0 l0 -85 -255 0 -255 0 0 85 0 85
255 0 255 0 0 -85z m690 0 l0 -85 -255 0 -255 0 0 85 0 85 255 0 255 0 0 -85z"/>
<path d="M4010 3925 l0 -85 85 0 85 0 0 85 0 85 -85 0 -85 0 0 -85z"/>
<path d="M4350 3925 l0 -85 85 0 85 0 0 85 0 85 -85 0 -85 0 0 -85z"/>
<path d="M340 595 l0 -85 85 0 85 0 0 85 0 85 -85 0 -85 0 0 -85z"/>
<path d="M680 595 l0 -85 85 0 85 0 0 85 0 85 -85 0 -85 0 0 -85z"/>
<path d="M625 4439 c-195 -66 -225 -85 -225 -142 -1 -29 35 -67 372 -399 205
-202 370 -367 367 -368 -3 0 -124 -41 -269 -91 -215 -73 -266 -88 -275 -77
-200 265 -297 387 -310 392 -30 11 -59 6 -152 -25 -94 -31 -133 -60 -133 -100
0 -19 243 -740 261 -776 7 -12 23 -26 38 -32 14 -6 157 -28 316 -50 l290 -39
223 75 c123 42 225 73 228 70 3 -2 -25 -220 -61 -484 -36 -263 -65 -494 -65
-512 0 -44 13 -66 49 -81 27 -11 47 -6 214 49 106 36 192 70 202 81 11 12 77
244 171 596 84 317 157 580 161 584 4 4 171 62 370 130 397 134 413 143 457
232 45 91 28 202 -42 273 -47 47 -74 61 -146 74 -33 6 -80 24 -105 40 -60 38
-140 61 -214 61 -48 0 -108 -16 -304 -81 -162 -54 -248 -77 -256 -71 -445 349
-959 732 -980 732 -1 0 -83 -28 -182 -61z m575 -436 c220 -169 397 -310 393
-314 -5 -4 -67 -26 -140 -50 l-131 -43 -334 328 c-183 181 -334 332 -336 335
-3 8 105 49 130 50 10 1 198 -137 418 -306z m1227 -268 c20 -9 52 -27 69 -40
21 -16 60 -30 105 -39 79 -15 109 -38 109 -82 0 -40 -32 -59 -186 -112 -82
-27 -482 -163 -889 -302 l-740 -253 -245 33 c-135 17 -248 35 -251 39 -7 7
-40 103 -36 107 2 2 779 267 1496 510 276 94 470 154 493 154 21 0 55 -7 75
-15z m-2103 -299 c59 -77 103 -143 99 -146 -8 -8 -101 -40 -114 -40 -11 0
-111 308 -104 320 4 6 8 10 10 8 2 -2 51 -66 109 -142z m1496 -408 c0 -7 -58
-229 -128 -493 l-128 -480 -67 -24 c-37 -13 -70 -21 -74 -18 -5 6 115 927 122
935 3 3 257 90 268 91 4 1 7 -5 7 -11z"/>
</g>
</svg>
