<?xml version="1.0" standalone="no"?>
<!DOCTYPE svg PUBLIC "-//W3C//DTD SVG 20010904//EN"
 "http://www.w3.org/TR/2001/REC-SVG-20010904/DTD/svg10.dtd">
<svg version="1.0" xmlns="http://www.w3.org/2000/svg"
 width="512.000000pt" height="512.000000pt" viewBox="0 0 512.000000 512.000000"
 preserveAspectRatio="xMidYMid meet">

<g transform="translate(0.000000,512.000000) scale(0.100000,-0.100000)"
 stroke="none">
<path d="M1572 5103 c-58 -29 -77 -67 -77 -159 0 -72 3 -84 27 -116 15 -19 42
-41 60 -48 18 -7 59 -38 91 -69 l57 -55 0 -333 c0 -292 -2 -333 -15 -333 -30
0 -171 -60 -250 -106 -94 -56 -239 -196 -303 -294 -230 -351 -299 -837 -211
-1484 62 -459 209 -921 425 -1336 89 -171 183 -329 257 -432 30 -41 57 -80 60
-85 4 -6 -2 -32 -14 -57 -33 -76 -5 -152 67 -182 49 -21 1579 -21 1628 0 72
30 100 106 67 182 -12 25 -18 51 -14 57 3 5 30 44 60 85 74 103 168 261 257
432 216 415 363 877 425 1336 88 647 19 1133 -211 1484 -64 98 -209 238 -303
294 -79 46 -220 106 -250 106 -13 0 -15 41 -15 333 l0 333 53 52 c29 28 72 62
97 74 70 36 85 65 85 161 0 69 -4 87 -22 113 -48 68 10 64 -1045 64 -857 0
-956 -2 -986 -17z m1936 -105 c16 -16 16 -90 0 -106 -17 -17 -1879 -17 -1896
0 -15 15 -16 72 -2 99 10 19 32 19 948 19 716 0 941 -3 950 -12z m-178 -235
c0 -4 -12 -20 -27 -35 -24 -25 -28 -39 -31 -103 l-4 -75 -708 0 -708 0 -4 75
c-3 64 -7 78 -31 103 -15 15 -27 31 -27 35 0 4 347 7 770 7 424 0 770 -3 770
-7z m-60 -403 l0 -80 -710 0 -710 0 0 80 0 80 710 0 710 0 0 -80z m0 -275 l0
-85 -710 0 -710 0 0 85 0 85 710 0 710 0 0 -85z m149 -215 c159 -50 310 -161
422 -309 43 -56 157 -268 148 -275 -2 -1 -23 -11 -47 -21 -24 -10 -80 -51
-125 -92 -104 -93 -150 -116 -230 -115 -84 0 -118 16 -223 107 -125 109 -173
130 -294 130 -83 0 -102 -3 -151 -27 -30 -15 -90 -59 -132 -98 -101 -92 -144
-113 -227 -113 -83 0 -126 21 -227 113 -42 39 -102 83 -132 98 -49 24 -68 27
-151 27 -121 0 -169 -21 -294 -130 -105 -91 -139 -107 -223 -107 -80 -1 -126
22 -230 115 -45 41 -101 82 -125 92 -24 10 -45 20 -47 21 -7 6 101 214 136
260 116 156 257 263 423 320 l65 22 800 1 c772 1 802 0 864 -19z m-1293 -695
c35 -10 70 -33 121 -79 102 -91 153 -124 225 -142 134 -35 245 3 388 131 98
88 157 112 243 101 68 -9 108 -33 202 -117 111 -100 165 -124 280 -124 115 0
168 24 285 127 47 41 100 83 118 92 32 16 32 16 41 -6 18 -48 61 -304 61 -365
0 -6 -24 -19 -53 -27 -63 -18 -107 -47 -197 -127 -85 -76 -137 -99 -220 -99
-85 0 -124 19 -230 109 -47 39 -110 84 -140 99 -49 24 -66 27 -160 27 -94 0
-111 -3 -161 -27 -30 -15 -89 -57 -130 -93 -102 -89 -155 -115 -239 -115 -84
0 -137 26 -239 115 -41 36 -100 78 -130 93 -50 24 -67 27 -161 27 -93 0 -111
-3 -160 -26 -30 -15 -93 -59 -140 -99 -106 -91 -145 -110 -230 -110 -83 0
-135 23 -220 99 -90 80 -134 109 -197 127 -29 8 -53 21 -53 27 0 61 43 317 61
365 9 22 9 22 41 6 18 -9 71 -51 118 -92 117 -103 170 -127 285 -127 78 0 97
4 146 27 31 16 92 60 135 98 131 117 196 139 310 105z m-4 -521 c27 -9 81 -45
134 -90 49 -42 112 -88 139 -102 46 -25 59 -27 165 -27 105 0 119 2 165 27 28
14 88 58 133 97 107 91 131 103 219 109 64 4 79 1 125 -22 29 -14 87 -55 127
-91 123 -107 218 -141 354 -123 76 10 135 42 237 129 80 68 155 113 172 103 4
-2 5 -42 3 -87 -3 -45 -8 -135 -11 -199 -6 -114 -7 -118 -29 -118 -39 0 -157
-67 -229 -130 -116 -100 -201 -127 -307 -97 -42 13 -73 33 -139 92 -136 120
-239 159 -366 136 -83 -16 -132 -43 -221 -122 -109 -98 -141 -114 -233 -114
-92 0 -123 16 -235 115 -91 80 -137 105 -219 121 -127 23 -230 -16 -366 -136
-66 -59 -97 -79 -139 -92 -106 -30 -191 -3 -307 97 -72 63 -190 130 -229 130
-22 0 -23 4 -29 103 -16 296 -16 297 5 297 32 0 74 -26 161 -101 97 -84 158
-117 235 -127 136 -18 231 16 354 123 97 85 156 115 229 115 31 0 77 -7 102
-16z m25 -521 c18 -7 72 -47 120 -90 122 -106 172 -128 293 -128 120 0 169 21
294 129 104 90 139 107 222 108 82 0 131 -23 229 -111 44 -40 105 -84 135 -99
49 -24 67 -27 155 -27 125 0 172 20 295 123 47 40 103 81 125 92 l40 20 3 -20
c5 -32 -45 -289 -89 -460 -50 -196 -104 -355 -182 -542 l-62 -148 -1165 3
-1165 2 -63 149 c-77 182 -130 340 -182 540 -43 167 -93 425 -88 456 l3 20 40
-20 c22 -11 78 -52 125 -92 123 -103 170 -123 295 -123 88 0 106 3 155 27 30
15 91 59 135 99 44 39 93 78 108 86 62 32 157 34 224 6z m1513 -1278 c0 -3 -9
-24 -20 -45 l-20 -40 -1060 0 -1060 0 -20 40 c-11 21 -20 42 -20 45 0 3 495 5
1100 5 605 0 1100 -2 1100 -5z m-141 -262 c-50 -82 -84 -133 -157 -235 l-55
-78 -747 0 -747 0 -56 78 c-62 86 -187 283 -187 295 0 4 448 7 995 7 l995 0
-41 -67z m-181 -455 l-3 -23 -775 0 -775 0 -3 23 -3 22 781 0 781 0 -3 -22z"/>
</g>
</svg>
