<?xml version="1.0" standalone="no"?>
<!DOCTYPE svg PUBLIC "-//W3C//DTD SVG 20010904//EN"
 "http://www.w3.org/TR/2001/REC-SVG-20010904/DTD/svg10.dtd">
<svg version="1.0" xmlns="http://www.w3.org/2000/svg"
 width="512.000000pt" height="512.000000pt" viewBox="0 0 512.000000 512.000000"
 preserveAspectRatio="xMidYMid meet">

<g transform="translate(0.000000,512.000000) scale(0.100000,-0.100000)"
 stroke="none">
<path d="M2370 5114 c-19 -2 -78 -9 -130 -15 -791 -90 -1522 -586 -1924 -1305
-146 -262 -252 -588 -297 -914 -18 -125 -18 -515 0 -640 105 -762 511 -1409
1146 -1826 609 -400 1377 -517 2090 -317 929 260 1646 1043 1819 1987 156 845
-103 1682 -705 2285 -399 398 -879 639 -1449 726 -100 15 -472 28 -550 19z
m540 -169 c58 -9 166 -31 240 -49 848 -211 1531 -892 1745 -1741 55 -219 69
-342 69 -595 0 -253 -14 -376 -69 -595 -213 -846 -894 -1527 -1740 -1740 -219
-55 -342 -69 -595 -69 -255 0 -368 13 -593 69 -849 213 -1528 892 -1742 1740
-55 219 -69 342 -69 595 0 253 14 376 69 595 192 760 764 1395 1507 1669 174
64 433 121 638 140 93 8 439 -4 540 -19z"/>
<path d="M1915 4700 c-72 -10 -117 -37 -226 -133 -103 -90 -114 -95 -257 -126
-51 -11 -112 -29 -137 -40 -63 -28 -122 -93 -179 -195 -62 -111 -91 -140 -202
-202 -102 -57 -167 -116 -195 -179 -11 -25 -29 -86 -40 -137 -31 -144 -36
-154 -126 -257 -47 -53 -96 -118 -109 -146 -27 -58 -28 -85 -19 -340 9 -219
22 -270 88 -342 l40 -43 -40 -43 c-66 -72 -79 -123 -88 -342 -9 -255 -8 -282
19 -340 13 -27 62 -93 109 -146 90 -103 95 -113 126 -257 11 -51 29 -112 40
-137 28 -63 93 -122 195 -179 111 -62 139 -90 201 -201 87 -155 145 -199 317
-236 143 -31 154 -36 257 -126 53 -47 112 -93 133 -104 51 -26 131 -36 218
-28 41 4 130 8 197 8 145 1 212 21 280 84 l43 40 43 -40 c68 -63 135 -83 280
-84 67 0 156 -4 197 -8 149 -15 215 10 348 130 42 39 89 77 105 85 15 8 77 26
138 39 61 14 130 33 154 44 62 27 121 93 179 195 67 120 80 133 191 196 113
64 178 122 206 185 11 24 30 93 44 154 13 61 31 123 39 138 8 16 46 63 85 105
38 43 81 97 95 121 31 52 43 137 35 227 -4 36 -7 122 -8 192 -1 151 -20 216
-84 285 l-40 43 40 43 c64 69 83 134 84 285 1 70 4 156 8 192 8 90 -4 175 -35
227 -14 24 -58 81 -98 126 -40 45 -78 92 -85 104 -6 13 -23 73 -36 134 -14 60
-33 130 -44 154 -28 63 -93 122 -195 179 -111 62 -140 91 -202 202 -57 102
-116 167 -179 195 -24 11 -94 30 -154 44 -61 13 -121 30 -134 36 -12 7 -59 45
-104 85 -45 40 -102 84 -126 98 -52 31 -137 43 -227 35 -36 -4 -122 -7 -192
-8 -151 -1 -216 -20 -285 -84 l-43 -40 -43 40 c-72 66 -123 79 -337 86 -102 3
-192 8 -200 10 -8 2 -38 1 -65 -3z m195 -158 l45 -7 24 -70 c27 -82 32 -227
11 -360 -12 -83 -75 -314 -89 -328 -4 -4 -16 -1 -27 7 -18 13 -19 28 -19 193
-1 115 -5 196 -14 228 -23 87 -86 207 -135 256 -25 26 -46 50 -46 53 0 3 12
12 28 20 29 16 141 20 222 8z m1121 -7 c16 -9 66 -49 110 -89 99 -90 153 -118
289 -146 160 -34 179 -49 271 -215 42 -76 108 -142 184 -184 166 -92 181 -111
215 -271 28 -136 56 -190 146 -289 110 -121 106 -106 98 -354 -7 -234 -14
-260 -74 -311 -43 -36 -67 -41 -204 -41 l-119 0 -37 87 c-43 103 -63 128 -102
128 -34 0 -78 -39 -78 -69 0 -11 11 -46 25 -77 14 -31 25 -60 25 -65 0 -5 -49
-9 -110 -9 -119 0 -121 1 -100 56 22 56 50 207 61 322 19 200 -8 367 -87 530
-52 108 -151 220 -246 279 l-58 36 45 48 c25 26 45 55 45 63 0 49 -51 93 -94
80 -11 -3 -50 -35 -86 -70 l-65 -63 -45 11 c-64 15 -261 14 -349 -1 -41 -8
-114 -26 -163 -41 l-88 -28 0 282 c0 259 2 283 19 312 34 55 86 87 150 92 l57
4 13 -85 c10 -66 18 -90 36 -107 31 -29 81 -24 108 11 18 25 18 32 7 99 -10
60 -10 74 1 81 24 15 167 10 200 -6z m-858 -11 c18 -9 43 -26 55 -38 51 -46
52 -53 52 -390 l0 -315 -28 -15 c-27 -14 -202 -34 -202 -24 0 3 9 31 21 64 48
138 71 264 76 429 4 126 2 175 -11 228 -9 38 -16 70 -16 73 0 8 22 4 53 -12z
m-588 -155 c50 -44 81 -102 106 -195 18 -70 20 -96 14 -221 -7 -155 -1 -193
42 -250 31 -43 96 -79 167 -96 l57 -13 -51 -43 -51 -43 -117 -1 c-132 0 -187
12 -233 50 l-32 27 9 101 c15 189 0 286 -64 394 -33 56 -126 149 -175 176 -21
11 -37 22 -37 25 0 3 39 14 87 23 85 18 183 58 204 84 17 20 35 16 74 -18z
m-438 -224 c58 -29 141 -112 172 -172 27 -54 39 -136 30 -209 -13 -109 -10
-196 10 -240 42 -91 140 -150 275 -163 l69 -6 -59 -65 c-32 -36 -73 -83 -91
-105 -31 -40 -32 -40 -100 -40 -56 0 -76 5 -114 27 -85 50 -139 138 -184 298
-42 149 -78 201 -175 251 -38 20 -60 24 -140 24 -69 0 -108 -5 -143 -19 -27
-10 -51 -15 -55 -12 -3 4 4 26 16 49 23 43 65 76 177 138 78 43 151 119 195
202 20 39 42 67 51 67 8 0 38 -11 66 -25z m1900 -381 c103 -26 182 -72 258
-148 79 -80 124 -160 156 -283 31 -112 31 -328 1 -469 -117 -546 -544 -1103
-1053 -1372 -196 -104 -380 -155 -559 -155 -189 0 -320 50 -435 167 -79 80
-124 160 -156 283 -31 112 -31 328 -1 469 56 262 179 522 365 774 93 126 347
378 464 460 348 245 692 343 960 274z m-2134 -178 c50 -21 66 -47 98 -158 17
-56 46 -135 65 -175 63 -131 185 -236 294 -250 47 -7 47 -6 -4 -85 l-36 -56
-61 14 c-34 8 -90 29 -123 47 -62 32 -186 147 -260 241 -100 125 -280 133
-456 22 l-55 -35 -3 24 c-5 35 21 77 93 156 35 38 77 88 92 111 78 117 254
188 356 144z m-201 -476 c28 -8 51 -29 103 -95 37 -47 95 -107 129 -135 64
-53 184 -119 251 -140 22 -6 46 -13 52 -15 9 -3 4 -24 -18 -71 -110 -246 -166
-556 -139 -769 16 -130 35 -198 87 -305 39 -80 59 -108 132 -181 129 -128 251
-185 446 -209 130 -16 309 5 454 55 60 20 73 22 77 10 3 -8 4 -133 2 -277 -4
-282 -6 -296 -60 -344 -50 -46 -74 -51 -295 -58 -248 -8 -233 -12 -354 98 -99
90 -153 118 -289 146 -160 34 -179 49 -271 215 -42 76 -108 142 -184 184 -166
92 -181 111 -215 271 -29 137 -55 189 -150 293 -42 48 -83 99 -89 115 -9 22
-10 85 -4 250 l8 220 31 39 c61 75 72 78 319 81 247 4 255 6 255 72 0 25 -7
43 -21 56 -19 17 -43 19 -248 24 -252 6 -254 6 -308 76 -25 33 -28 47 -31 124
-4 85 -3 87 30 131 43 56 130 115 199 133 67 18 58 18 101 6z m3338 -640 c0
-23 -30 -68 -69 -103 -40 -36 -92 -57 -144 -57 -35 0 -77 -41 -77 -75 0 -15
11 -37 26 -52 23 -23 31 -25 85 -20 143 13 268 113 324 260 10 26 24 47 31 47
21 0 80 -57 97 -93 11 -23 16 -89 21 -244 8 -248 12 -233 -98 -354 -90 -99
-118 -153 -146 -289 -32 -150 -52 -180 -151 -235 l-48 -26 -29 44 c-44 63
-117 99 -212 105 -74 4 -77 3 -98 -23 -27 -34 -28 -65 -4 -95 14 -17 33 -24
85 -29 50 -5 73 -13 92 -31 40 -37 39 -54 -3 -117 -22 -32 -51 -81 -66 -109
-52 -97 -102 -133 -196 -141 -104 -10 -170 51 -170 156 0 47 -21 95 -45 105
-31 12 -65 6 -85 -14 -43 -43 -17 -213 45 -294 15 -20 23 -36 19 -36 -5 0 -48
-35 -96 -79 -48 -43 -100 -84 -116 -90 -22 -9 -85 -10 -249 -4 l-220 8 -37 29
c-73 55 -76 67 -76 289 l0 197 28 11 c15 6 58 14 95 17 57 4 71 9 87 30 25 31
25 63 1 93 -17 21 -28 24 -83 24 -34 0 -78 -3 -95 -7 -33 -7 -33 -7 -33 32 0
38 2 41 59 69 86 44 254 159 344 236 l79 67 41 -40 c64 -63 145 -95 238 -96
93 -1 119 15 119 74 0 50 -28 75 -83 72 -66 -3 -138 23 -176 61 l-33 35 51 56
c28 30 78 91 112 133 34 43 65 79 69 81 4 1 13 -11 20 -27 17 -43 91 -108 136
-120 93 -26 258 1 294 47 24 29 25 60 5 89 -21 29 -55 35 -111 18 -146 -44
-213 3 -214 150 -1 40 10 72 52 162 l53 112 278 0 c187 1 277 -2 277 -9z"/>
<path d="M3160 4270 c-44 -44 -13 -120 49 -122 68 -2 100 73 54 125 -22 23
-78 22 -103 -3z"/>
<path d="M2819 4209 c-38 -14 -57 -63 -38 -97 20 -37 96 -92 125 -92 31 0 74
42 74 72 0 33 -22 61 -77 97 -51 34 -47 33 -84 20z"/>
<path d="M3700 3970 c-44 -44 -12 -123 50 -123 67 0 99 75 53 126 -22 23 -78
22 -103 -3z"/>
<path d="M3956 3679 c-38 -30 -35 -72 12 -134 32 -42 44 -50 74 -53 44 -4 78
24 78 65 0 30 -54 119 -81 133 -28 15 -54 12 -83 -11z"/>
<path d="M4024 3300 c-26 -10 -54 -48 -54 -71 0 -9 9 -28 21 -43 41 -52 129
-23 129 43 0 52 -51 89 -96 71z"/>
<path d="M4290 3103 c-31 -12 -110 -86 -116 -109 -13 -50 50 -103 100 -84 38
14 116 94 116 118 0 42 -63 89 -100 75z"/>
<path d="M2475 3190 c-150 -23 -251 -75 -360 -185 -130 -129 -187 -264 -188
-440 -1 -112 14 -176 65 -285 57 -120 168 -231 288 -288 107 -50 172 -66 280
-66 108 0 173 16 280 66 120 57 231 168 288 288 50 107 66 173 66 280 -1 111
-19 184 -51 210 -34 26 -56 25 -90 -4 l-27 -24 11 -90 c33 -263 -91 -473 -327
-552 -74 -25 -198 -30 -269 -11 -115 32 -229 114 -291 211 -97 151 -97 369 0
520 148 230 450 292 686 139 69 -45 101 -49 132 -16 47 50 21 101 -83 162
-115 68 -288 104 -410 85z"/>
<path d="M994 2325 c-74 -31 -50 -135 31 -135 57 0 95 68 61 112 -21 28 -58
38 -92 23z"/>
<path d="M785 2119 c-49 -28 -58 -70 -24 -113 40 -51 129 -20 129 46 0 52 -62
91 -105 67z"/>
<path d="M1002 1910 c-32 -30 -30 -82 4 -109 31 -24 43 -26 78 -10 34 16 47
57 31 96 -20 47 -75 58 -113 23z"/>
<path d="M1111 1444 c-12 -15 -21 -34 -21 -44 0 -10 9 -29 21 -44 41 -52 129
-23 129 44 0 67 -88 96 -129 44z"/>
<path d="M1426 1238 c-53 -48 -25 -128 44 -128 67 0 96 88 44 129 -34 27 -57
26 -88 -1z"/>
<path d="M2241 1054 c-35 -45 -22 -93 30 -113 30 -11 83 8 93 34 31 81 -70
146 -123 79z"/>
<path d="M1758 1010 c-24 -25 -29 -36 -24 -58 21 -89 146 -78 146 12 0 25 -7
40 -26 55 -36 29 -60 26 -96 -9z"/>
<path d="M2020 850 c-36 -36 -24 -95 23 -115 39 -16 80 -3 96 31 16 35 14 47
-10 78 -26 33 -79 36 -109 6z"/>
<path d="M4080 1948 c-16 -17 -20 -35 -20 -89 0 -75 -11 -113 -42 -146 -28
-30 -109 -31 -188 -3 -101 35 -150 19 -150 -51 0 -42 29 -66 112 -94 203 -67
358 -4 403 165 22 84 20 181 -6 214 -27 34 -79 36 -109 4z"/>
<path d="M3395 1394 c-11 -2 -45 -9 -75 -15 -91 -18 -214 -83 -278 -147 -89
-89 -161 -249 -162 -358 0 -46 34 -84 74 -84 46 0 66 27 82 109 39 208 170
322 396 347 76 8 108 32 108 80 0 58 -58 85 -145 68z"/>
</g>
</svg>
