<?xml version="1.0" standalone="no"?>
<!DOCTYPE svg PUBLIC "-//W3C//DTD SVG 20010904//EN"
 "http://www.w3.org/TR/2001/REC-SVG-20010904/DTD/svg10.dtd">
<svg version="1.0" xmlns="http://www.w3.org/2000/svg"
 width="970.000000pt" height="889.000000pt" viewBox="0 0 970.000000 889.000000"
 preserveAspectRatio="xMidYMid meet">

<g transform="translate(0.000000,889.000000) scale(0.100000,-0.100000)"
fill="#000000" stroke="none">
<path d="M3418 7840 c-31 -9 -60 -35 -79 -70 -8 -16 -15 -76 -19 -160 -5 -119
-8 -140 -28 -167 -12 -17 -22 -34 -22 -38 0 -10 -79 -124 -146 -210 -94 -120
-228 -254 -329 -327 -5 -4 -23 -18 -40 -32 -84 -67 -235 -148 -420 -225 -157
-66 -402 -111 -610 -111 -136 0 -155 -2 -195 -22 -92 -46 -106 -167 -29 -240
20 -20 141 -50 404 -102 44 -9 103 -21 130 -26 28 -6 75 -15 105 -21 30 -5 71
-13 90 -19 19 -5 85 -19 145 -30 61 -11 139 -27 175 -34 36 -8 102 -22 147
-32 l82 -17 0 -291 0 -292 -29 -27 c-15 -15 -33 -27 -39 -27 -6 0 -11 -5 -11
-10 0 -6 -8 -13 -17 -17 -10 -3 -25 -12 -33 -20 -33 -30 -109 -83 -119 -83 -6
0 -11 -3 -11 -7 0 -21 -238 -139 -357 -177 -168 -53 -243 -66 -438 -73 -151
-5 -185 -9 -212 -25 -93 -56 -96 -192 -5 -254 17 -11 75 -31 129 -44 54 -12
118 -28 143 -35 25 -7 61 -16 80 -20 19 -4 49 -11 65 -16 36 -11 214 -55 304
-75 35 -8 67 -16 71 -19 5 -3 35 -10 67 -16 57 -10 105 -23 150 -40 l23 -9 0
-275 0 -275 -45 0 -45 0 0 63 c0 103 -9 134 -51 177 -35 36 -44 40 -89 40 -61
0 -102 -26 -131 -82 -17 -34 -19 -61 -19 -283 0 -235 -1 -245 -19 -245 -11 0
-32 -13 -48 -28 -29 -30 -322 -461 -335 -494 -4 -10 -12 -18 -18 -18 -5 0 -10
-6 -10 -13 0 -7 -8 -22 -18 -33 -11 -11 -21 -24 -23 -30 -4 -11 -301 -456
-309 -464 -10 -10 -50 -69 -50 -74 0 -3 -27 -45 -61 -93 -33 -48 -126 -187
-207 -308 -80 -121 -150 -221 -154 -223 -4 -2 -8 -7 -8 -12 0 -4 -42 -71 -94
-148 -101 -150 -121 -195 -112 -246 10 -50 63 -103 116 -115 70 -16 3510 -15
3564 1 43 13 60 26 91 73 19 29 20 49 23 484 3 446 3 455 24 485 68 97 172
146 313 146 154 0 280 -66 326 -169 18 -41 19 -70 19 -490 l0 -447 25 -34 c14
-19 42 -42 62 -52 36 -16 134 -17 1826 -18 1670 0 1791 1 1825 17 46 22 62 39
85 86 33 72 26 93 -88 263 -58 86 -105 160 -105 164 0 5 -4 10 -8 12 -5 2 -74
102 -154 223 -81 121 -174 260 -207 308 -34 48 -61 91 -61 96 0 4 -9 16 -20
26 -11 10 -20 24 -20 32 0 7 -4 13 -8 13 -5 0 -14 11 -20 25 -7 14 -17 31 -22
38 -23 26 -270 399 -270 407 0 4 -3 10 -7 12 -9 3 -63 74 -63 82 0 4 -279 422
-309 462 -19 26 -66 52 -101 56 l-25 3 -5 255 c-5 272 -7 284 -59 327 -20 17
-39 22 -82 23 -49 0 -59 -4 -88 -32 -44 -44 -51 -65 -51 -164 l0 -84 -50 0
-50 0 2 277 3 277 40 9 c22 4 63 14 90 21 63 17 134 34 205 51 89 21 263 64
295 74 17 5 102 25 190 46 185 43 231 59 262 93 59 64 31 207 -46 239 -14 6
-105 14 -201 17 -100 3 -207 13 -250 22 -138 30 -295 83 -390 134 -63 33 -192
110 -200 119 -3 3 -27 21 -55 40 -27 19 -62 45 -77 59 l-27 25 0 314 0 314 25
9 c13 5 50 14 82 19 31 6 102 20 157 32 55 12 133 27 173 35 107 21 210 41
267 54 28 5 86 17 130 26 44 9 109 22 145 30 36 7 101 21 145 30 93 19 119 33
145 77 43 70 14 167 -60 205 -40 20 -59 22 -185 22 -105 0 -172 6 -270 24
-154 29 -223 44 -250 56 -11 4 -42 16 -70 25 -375 130 -712 405 -961 785 l-49
75 -5 140 c-4 89 -10 149 -19 165 -37 68 -113 95 -178 63 -59 -29 -77 -62 -83
-156 l-5 -82 -1245 0 -1245 0 -5 80 c-6 93 -30 138 -86 161 -37 15 -56 16 -96
4z m2746 -556 c9 -8 16 -20 16 -25 0 -16 161 -243 194 -274 6 -5 24 -26 40
-45 155 -191 413 -395 646 -511 126 -62 186 -89 202 -89 27 -1 -27 -30 -55
-30 -16 0 -56 -7 -90 -15 -34 -8 -107 -24 -162 -35 -55 -12 -118 -26 -140 -31
-26 -6 -742 -9 -1980 -7 l-1940 3 -95 23 c-97 23 -129 30 -261 55 -42 8 -82
18 -89 22 -7 5 15 19 61 40 83 36 174 80 204 98 60 37 102 63 117 72 40 23
104 71 111 82 4 7 12 13 17 13 6 0 18 8 28 18 11 9 43 37 72 62 166 141 346
353 445 525 16 28 34 53 40 57 5 4 594 8 1307 8 1165 0 1298 -2 1312 -16z
m516 -1414 l0 -60 -1807 2 -1808 3 -3 58 -3 57 1811 0 1810 0 0 -60z m-3362
-412 l-3 -53 -125 0 -125 0 -3 53 -3 52 131 0 131 0 -3 -52z m730 0 l-3 -53
-220 0 -220 0 -3 53 -3 52 226 0 226 0 -3 -52z m1312 -3 l0 -55 -510 0 -510 0
0 55 0 55 510 0 510 0 0 -55z m738 3 l-3 -53 -220 0 -220 0 -3 53 -3 52 226 0
226 0 -3 -52z m582 -3 l0 -56 -147 3 -148 3 -3 53 -3 52 150 0 151 0 0 -55z
m114 -357 c11 -6 26 -16 32 -22 6 -6 22 -18 34 -26 12 -8 32 -22 44 -31 52
-39 155 -106 199 -129 26 -14 47 -28 47 -32 0 -5 5 -8 10 -8 6 0 54 -21 107
-47 109 -52 110 -48 -27 -85 -41 -10 -102 -27 -135 -36 -55 -15 -249 -16
-2255 -17 -1997 0 -2200 2 -2250 16 -30 9 -100 29 -155 43 -55 15 -101 28
-102 30 -2 2 27 16 64 31 75 32 235 117 253 135 3 3 32 23 65 44 33 22 86 59
118 84 32 24 70 48 85 52 45 13 3841 11 3866 -2z m36 -798 l0 -60 -1999 0
c-1813 0 -1999 1 -2005 16 -8 21 -8 89 1 97 3 4 906 7 2005 7 l1998 0 0 -60z
m-3510 -410 l0 -60 -250 0 -250 0 0 60 0 60 250 0 250 0 0 -60z m730 0 l0 -60
-225 0 -225 0 0 60 0 60 225 0 225 0 0 -60z m1310 0 l0 -60 -510 0 -510 0 0
60 0 60 510 0 510 0 0 -60z m740 0 l0 -60 -225 0 -225 0 0 60 0 60 225 0 225
0 0 -60z m730 0 l0 -60 -225 0 -225 0 0 60 0 60 225 0 225 0 0 -60z m390 -375
c0 -13 -272 -15 -2385 -15 -2113 0 -2385 2 -2385 15 0 13 272 15 2385 15 2113
0 2385 -2 2385 -15z m256 -355 c18 -25 33 -50 33 -57 1 -6 5 -13 9 -15 8 -3
343 -503 351 -523 2 -5 7 -12 10 -15 10 -7 305 -452 312 -470 4 -9 14 -22 23
-29 9 -7 16 -17 16 -22 0 -5 15 -31 34 -57 67 -95 286 -425 286 -430 0 -3 10
-16 22 -29 l21 -23 -1571 0 -1572 0 0 363 c-1 311 -3 370 -18 422 -65 227
-276 389 -532 410 -84 6 -245 -8 -278 -24 -9 -5 -42 -19 -72 -32 -30 -13 -60
-28 -67 -34 -6 -5 -29 -21 -50 -34 -46 -28 -138 -133 -165 -187 -43 -87 -48
-140 -48 -521 l0 -363 -1557 0 -1556 0 21 23 c12 13 22 26 22 29 0 5 219 335
286 430 19 26 34 52 34 57 0 5 7 15 16 22 9 7 19 20 23 29 10 24 305 465 313
468 5 2 8 8 8 12 0 8 296 456 310 470 3 3 11 17 19 33 8 15 18 27 23 27 4 0 8
5 8 10 0 10 29 56 59 93 13 16 147 17 2604 15 l2590 -3 33 -45z"/>
</g>
</svg>
