<?xml version="1.0" standalone="no"?>
<!DOCTYPE svg PUBLIC "-//W3C//DTD SVG 20010904//EN"
 "http://www.w3.org/TR/2001/REC-SVG-20010904/DTD/svg10.dtd">
<svg version="1.0" xmlns="http://www.w3.org/2000/svg"
 width="512.000000pt" height="512.000000pt" viewBox="0 0 512.000000 512.000000"
 preserveAspectRatio="xMidYMid meet">

<g transform="translate(0.000000,512.000000) scale(0.100000,-0.100000)"
fill="#000000" stroke="none">
<path d="M1694 4587 c-24 -21 -27 -29 -25 -87 1 -73 -25 -141 -66 -167 -14 -9
-80 -31 -147 -49 -165 -44 -226 -68 -272 -108 l-39 -33 -30 22 c-49 38 -126
73 -267 121 -208 71 -292 125 -338 214 -33 64 -91 80 -134 37 -53 -53 -68
-323 -28 -492 60 -248 235 -479 455 -602 61 -34 67 -41 63 -63 -14 -61 -18
-277 -7 -329 25 -116 68 -158 130 -127 41 22 46 50 31 157 -15 103 -9 215 15
312 24 93 16 108 -79 151 -194 88 -345 245 -417 430 -32 83 -58 202 -59 269
l0 38 28 -19 c49 -35 110 -62 245 -109 181 -63 251 -100 315 -167 30 -31 65
-59 78 -62 34 -9 70 18 95 72 30 62 82 90 246 130 148 36 201 62 257 124 21
23 40 39 43 36 12 -12 15 -203 4 -257 -17 -80 -69 -184 -129 -256 -60 -72
-190 -172 -301 -231 -98 -52 -108 -71 -86 -157 59 -231 249 -417 490 -480 126
-32 147 -23 325 155 331 328 690 590 1075 782 218 110 521 205 725 229 107 12
288 7 345 -10 28 -9 27 -9 -17 -10 -80 -2 -289 -32 -385 -56 -195 -50 -382
-141 -540 -265 -210 -163 -282 -260 -419 -567 -182 -406 -284 -550 -458 -648
-35 -19 -68 -41 -74 -48 -5 -7 -12 -79 -15 -162 -7 -217 -52 -368 -157 -527
-65 -99 -66 -154 -2 -176 46 -16 84 7 128 78 35 58 40 61 68 56 190 -33 579
-42 756 -18 161 23 328 66 451 116 14 6 17 -8 22 -106 11 -201 72 -410 186
-644 108 -222 228 -400 344 -512 99 -95 127 -85 201 71 146 307 190 666 120
981 -25 113 -62 152 -122 127 -53 -22 -57 -45 -31 -172 19 -91 23 -145 23
-269 0 -203 -30 -352 -104 -525 l-21 -50 -20 25 c-67 85 -191 285 -249 405
-127 258 -170 432 -170 683 l0 161 -26 20 c-36 29 -50 27 -152 -18 -120 -53
-375 -131 -388 -118 -2 1 34 25 79 52 117 70 287 190 397 283 116 97 331 316
423 432 201 251 392 584 503 877 22 57 42 103 47 103 4 0 7 -42 7 -93 0 -85 2
-96 23 -115 34 -32 89 -30 117 6 21 25 22 34 17 147 -13 278 -98 459 -255 543
-119 64 -319 102 -532 102 -297 0 -572 -72 -915 -240 -375 -184 -731 -445
-1126 -828 l-117 -113 -48 11 c-131 30 -267 135 -331 256 -18 34 -33 66 -33
72 0 6 36 32 81 59 150 89 304 252 374 398 114 235 70 593 -91 735 -42 36 -74
38 -110 7z m2839 -703 c15 -15 -129 -388 -223 -575 -323 -643 -875 -1163
-1502 -1414 -99 -39 -79 -38 -296 -14 -69 8 -102 15 -99 23 2 6 12 35 21 64
16 48 22 54 69 74 190 79 457 241 637 384 120 95 351 331 441 449 214 281 363
567 464 887 l37 117 41 4 c73 6 403 7 410 1z m-633 -48 c0 -11 -70 -208 -95
-266 -129 -305 -299 -562 -530 -799 -206 -212 -414 -368 -667 -501 l-118 -62
0 80 0 80 37 23 c69 43 154 120 212 194 78 98 143 213 245 437 132 290 188
381 300 494 66 66 161 136 266 196 104 59 350 147 350 124z"/>
<path d="M4618 3230 c-18 -13 -36 -51 -59 -117 -109 -317 -380 -731 -547 -837
-87 -54 -91 -103 -15 -170 25 -23 74 -78 110 -123 35 -45 72 -85 83 -88 49
-16 100 24 100 78 0 31 -65 131 -114 176 l-25 24 76 81 c191 202 370 499 477
788 43 116 45 150 11 183 -29 30 -64 32 -97 5z"/>
<path d="M2317 2986 c-30 -28 -42 -65 -33 -102 25 -100 177 -100 202 0 16 66
-32 126 -101 126 -31 0 -49 -7 -68 -24z"/>
<path d="M1043 2770 c-27 -11 -43 -40 -43 -78 0 -53 180 -286 309 -400 54 -47
155 -129 169 -138 2 -1 -13 -26 -32 -54 -40 -58 -61 -120 -78 -225 -15 -98
-39 -154 -115 -268 -78 -117 -222 -271 -381 -405 -114 -96 -159 -149 -180
-211 -26 -75 -8 -158 47 -222 43 -52 101 -78 167 -79 96 0 131 16 489 228 267
159 494 318 618 434 56 53 63 93 22 133 -42 43 -72 34 -167 -47 -162 -139
-384 -287 -721 -479 -209 -120 -244 -130 -285 -86 -28 29 -28 67 -1 101 11 14
72 69 135 122 133 111 258 244 361 382 109 146 141 213 164 343 26 146 40 178
110 243 49 46 59 61 59 89 0 38 -15 54 -135 141 -110 80 -276 251 -359 370
-39 54 -80 102 -93 107 -28 11 -31 11 -60 -1z"/>
</g>
</svg>
